<svg width="25" height="25" viewBox="0 0 25 25" fill="none" xmlns="http://www.w3.org/2000/svg">
<path d="M22.9167 2.5H20.8333V1.66667C20.8333 1.22464 20.6577 0.800716 20.3452 0.488155C20.0326 0.175595 19.6087 0 19.1667 0C18.7246 0 18.3007 0.175595 17.9882 0.488155C17.6756 0.800716 17.5 1.22464 17.5 1.66667V2.5H14.1667V1.66667C14.1667 1.22464 13.9911 0.800716 13.6785 0.488155C13.3659 0.175595 12.942 0 12.5 0C12.058 0 11.634 0.175595 11.3215 0.488155C11.0089 0.800716 10.8333 1.22464 10.8333 1.66667V2.5H7.5V1.66667C7.5 1.22464 7.3244 0.800716 7.01184 0.488155C6.69928 0.175595 6.27536 0 5.83333 0C5.39131 0 4.96738 0.175595 4.65482 0.488155C4.34226 0.800716 4.16667 1.22464 4.16667 1.66667V2.5H2.08333C1.5308 2.5 1.0009 2.71949 0.610194 3.11019C0.219493 3.5009 0 4.0308 0 4.58333V21.25C0 21.8025 0.219493 22.3324 0.610194 22.7231C1.0009 23.1138 1.5308 23.3333 2.08333 23.3333H13.75C13.8605 23.3333 13.9665 23.2894 14.0446 23.2113C14.1228 23.1332 14.1667 23.0272 14.1667 22.9167C14.1667 22.8062 14.1228 22.7002 14.0446 22.622C13.9665 22.5439 13.8605 22.5 13.75 22.5H2.08333C1.75212 22.499 1.43475 22.367 1.20054 22.1328C0.966336 21.8986 0.834323 21.5812 0.833333 21.25V8.33333H24.1667V15.4167C24.1667 15.5272 24.2106 15.6332 24.2887 15.7113C24.3668 15.7894 24.4728 15.8333 24.5833 15.8333C24.6938 15.8333 24.7998 15.7894 24.878 15.7113C24.9561 15.6332 25 15.5272 25 15.4167V4.58333C25 4.0308 24.7805 3.5009 24.3898 3.11019C23.9991 2.71949 23.4692 2.5 22.9167 2.5ZM18.3333 1.66667C18.3333 1.44565 18.4211 1.23369 18.5774 1.07741C18.7337 0.921131 18.9457 0.833333 19.1667 0.833333C19.3877 0.833333 19.5996 0.921131 19.7559 1.07741C19.9122 1.23369 20 1.44565 20 1.66667V4.16667C20 4.38768 19.9122 4.59964 19.7559 4.75592C19.5996 4.9122 19.3877 5 19.1667 5C18.9457 5 18.7337 4.9122 18.5774 4.75592C18.4211 4.59964 18.3333 4.38768 18.3333 4.16667V1.66667ZM11.6667 1.66667C11.6667 1.44565 11.7545 1.23369 11.9107 1.07741C12.067 0.921131 12.279 0.833333 12.5 0.833333C12.721 0.833333 12.933 0.921131 13.0893 1.07741C13.2455 1.23369 13.3333 1.44565 13.3333 1.66667V4.16667C13.3333 4.38768 13.2455 4.59964 13.0893 4.75592C12.933 4.9122 12.721 5 12.5 5C12.279 5 12.067 4.9122 11.9107 4.75592C11.7545 4.59964 11.6667 4.38768 11.6667 4.16667V1.66667ZM5 1.66667C5 1.44565 5.0878 1.23369 5.24408 1.07741C5.40036 0.921131 5.61232 0.833333 5.83333 0.833333C6.05435 0.833333 6.26631 0.921131 6.42259 1.07741C6.57887 1.23369 6.66667 1.44565 6.66667 1.66667V4.16667C6.66667 4.38768 6.57887 4.59964 6.42259 4.75592C6.26631 4.9122 6.05435 5 5.83333 5C5.61232 5 5.40036 4.9122 5.24408 4.75592C5.0878 4.59964 5 4.38768 5 4.16667V1.66667ZM24.1667 7.5H0.833333V4.58333C0.834323 4.25212 0.966336 3.93475 1.20054 3.70054C1.43475 3.46634 1.75212 3.33432 2.08333 3.33333H4.16667V4.16667C4.16667 4.60869 4.34226 5.03262 4.65482 5.34518C4.96738 5.65774 5.39131 5.83333 5.83333 5.83333C6.27536 5.83333 6.69928 5.65774 7.01184 5.34518C7.3244 5.03262 7.5 4.60869 7.5 4.16667V3.33333H10.8333V4.16667C10.8333 4.60869 11.0089 5.03262 11.3215 5.34518C11.634 5.65774 12.058 5.83333 12.5 5.83333C12.942 5.83333 13.3659 5.65774 13.6785 5.34518C13.9911 5.03262 14.1667 4.60869 14.1667 4.16667V3.33333H17.5V4.16667C17.5 4.60869 17.6756 5.03262 17.9882 5.34518C18.3007 5.65774 18.7246 5.83333 19.1667 5.83333C19.6087 5.83333 20.0326 5.65774 20.3452 5.34518C20.6577 5.03262 20.8333 4.60869 20.8333 4.16667V3.33333H22.9167C23.2479 3.33432 23.5653 3.46634 23.7995 3.70054C24.0337 3.93475 24.1657 4.25212 24.1667 4.58333V7.5Z" fill="#4A566E"/>
<path d="M11.6663 11.25C11.6663 11.029 11.5785 10.817 11.4223 10.6608C11.266 10.5045 11.054 10.4167 10.833 10.4167H9.16634C8.94533 10.4167 8.73337 10.5045 8.57709 10.6608C8.42081 10.817 8.33301 11.029 8.33301 11.25V12.5C8.33301 12.721 8.42081 12.933 8.57709 13.0893C8.73337 13.2456 8.94533 13.3334 9.16634 13.3334H10.833C11.054 13.3334 11.266 13.2456 11.4223 13.0893C11.5785 12.933 11.6663 12.721 11.6663 12.5V11.25ZM9.16634 12.5V11.25H10.833V12.5H9.16634Z" fill="#4A566E"/>
<path d="M6.66634 11.25C6.66634 11.029 6.57854 10.817 6.42226 10.6608C6.26598 10.5045 6.05402 10.4167 5.83301 10.4167H4.16634C3.94533 10.4167 3.73337 10.5045 3.57709 10.6608C3.42081 10.817 3.33301 11.029 3.33301 11.25V12.5C3.33301 12.721 3.42081 12.933 3.57709 13.0893C3.73337 13.2456 3.94533 13.3334 4.16634 13.3334H5.83301C6.05402 13.3334 6.26598 13.2456 6.42226 13.0893C6.57854 12.933 6.66634 12.721 6.66634 12.5V11.25ZM4.16634 12.5V11.25H5.83301V12.5H4.16634Z" fill="#4A566E"/>
<path d="M20.834 13.3334C21.055 13.3334 21.267 13.2456 21.4232 13.0893C21.5795 12.933 21.6673 12.721 21.6673 12.5V11.25C21.6673 11.029 21.5795 10.817 21.4232 10.6608C21.267 10.5045 21.055 10.4167 20.834 10.4167H19.1673C18.9463 10.4167 18.7343 10.5045 18.5781 10.6608C18.4218 10.817 18.334 11.029 18.334 11.25V12.5C18.334 12.721 18.4218 12.933 18.5781 13.0893C18.7343 13.2456 18.9463 13.3334 19.1673 13.3334H20.834ZM19.1673 11.25H20.834V12.5H19.1673V11.25Z" fill="#4A566E"/>
<path d="M11.6663 15C11.6663 14.779 11.5785 14.567 11.4223 14.4108C11.266 14.2545 11.054 14.1667 10.833 14.1667H9.16634C8.94533 14.1667 8.73337 14.2545 8.57709 14.4108C8.42081 14.567 8.33301 14.779 8.33301 15V16.25C8.33301 16.471 8.42081 16.683 8.57709 16.8393C8.73337 16.9956 8.94533 17.0834 9.16634 17.0834H10.833C11.054 17.0834 11.266 16.9956 11.4223 16.8393C11.5785 16.683 11.6663 16.471 11.6663 16.25V15ZM9.16634 16.25V15H10.833V16.25H9.16634Z" fill="#4A566E"/>
<path d="M6.66634 15C6.66634 14.779 6.57854 14.567 6.42226 14.4108C6.26598 14.2545 6.05402 14.1667 5.83301 14.1667H4.16634C3.94533 14.1667 3.73337 14.2545 3.57709 14.4108C3.42081 14.567 3.33301 14.779 3.33301 15V16.25C3.33301 16.471 3.42081 16.683 3.57709 16.8393C3.73337 16.9956 3.94533 17.0834 4.16634 17.0834H5.83301C6.05402 17.0834 6.26598 16.9956 6.42226 16.8393C6.57854 16.683 6.66634 16.471 6.66634 16.25V15ZM4.16634 16.25V15H5.83301V16.25H4.16634Z" fill="#4A566E"/>
<path d="M10.833 17.9167H9.16634C8.94533 17.9167 8.73337 18.0045 8.57709 18.1608C8.42081 18.317 8.33301 18.529 8.33301 18.75V20C8.33301 20.221 8.42081 20.433 8.57709 20.5893C8.73337 20.7456 8.94533 20.8334 9.16634 20.8334H10.833C11.054 20.8334 11.266 20.7456 11.4223 20.5893C11.5785 20.433 11.6663 20.221 11.6663 20V18.75C11.6663 18.529 11.5785 18.317 11.4223 18.1608C11.266 18.0045 11.054 17.9167 10.833 17.9167ZM9.16634 20V18.75H10.833V20H9.16634Z" fill="#4A566E"/>
<path d="M14.1673 13.3334H15.834C16.055 13.3334 16.267 13.2456 16.4232 13.0893C16.5795 12.933 16.6673 12.721 16.6673 12.5V11.25C16.6673 11.029 16.5795 10.817 16.4232 10.6608C16.267 10.5045 16.055 10.4167 15.834 10.4167H14.1673C13.9463 10.4167 13.7343 10.5045 13.5781 10.6608C13.4218 10.817 13.334 11.029 13.334 11.25V12.5C13.334 12.721 13.4218 12.933 13.5781 13.0893C13.7343 13.2456 13.9463 13.3334 14.1673 13.3334ZM14.1673 11.25H15.834V12.5H14.1673V11.25Z" fill="#4A566E"/>
<path d="M13.334 16.25C13.334 16.471 13.4218 16.683 13.5781 16.8393C13.7343 16.9956 13.9463 17.0834 14.1673 17.0834C14.2778 17.0834 14.3838 17.0395 14.4619 16.9613C14.5401 16.8832 14.584 16.7772 14.584 16.6667C14.584 16.5562 14.5401 16.4502 14.4619 16.3721C14.3838 16.2939 14.2778 16.25 14.1673 16.25V15H15.834C15.9445 15 16.0505 14.9561 16.1286 14.878C16.2068 14.7998 16.2507 14.6939 16.2507 14.5834C16.2507 14.4728 16.2068 14.3669 16.1286 14.2887C16.0505 14.2106 15.9445 14.1667 15.834 14.1667H14.1673C13.9463 14.1667 13.7343 14.2545 13.5781 14.4108C13.4218 14.567 13.334 14.779 13.334 15V16.25Z" fill="#4A566E"/>
<path d="M5.83301 17.9167H4.16634C3.94533 17.9167 3.73337 18.0045 3.57709 18.1608C3.42081 18.317 3.33301 18.529 3.33301 18.75V20C3.33301 20.221 3.42081 20.433 3.57709 20.5893C3.73337 20.7456 3.94533 20.8334 4.16634 20.8334H5.83301C6.05402 20.8334 6.26598 20.7456 6.42226 20.5893C6.57854 20.433 6.66634 20.221 6.66634 20V18.75C6.66634 18.529 6.57854 18.317 6.42226 18.1608C6.26598 18.0045 6.05402 17.9167 5.83301 17.9167ZM4.16634 20V18.75H5.83301V20H4.16634Z" fill="#4A566E"/>
<path d="M19.5837 14.1667C18.5123 14.1667 17.4651 14.4844 16.5743 15.0796C15.6836 15.6748 14.9893 16.5207 14.5793 17.5105C14.1693 18.5003 14.0621 19.5894 14.2711 20.6401C14.4801 21.6908 14.996 22.656 15.7535 23.4135C16.511 24.1711 17.4762 24.6869 18.5269 24.8959C19.5777 25.1049 20.6668 24.9977 21.6565 24.5877C22.6463 24.1777 23.4923 23.4835 24.0875 22.5927C24.6826 21.7019 25.0003 20.6547 25.0003 19.5834C24.9987 18.1473 24.4275 16.7705 23.412 15.755C22.3965 14.7396 21.0197 14.1683 19.5837 14.1667ZM19.5837 24.1667C18.6772 24.1667 17.791 23.8979 17.0373 23.3943C16.2836 22.8906 15.6961 22.1748 15.3492 21.3373C15.0023 20.4998 14.9115 19.5783 15.0884 18.6892C15.2652 17.8001 15.7018 16.9834 16.3428 16.3424C16.9837 15.7015 17.8004 15.2649 18.6895 15.0881C19.5786 14.9112 20.5001 15.002 21.3376 15.3489C22.1751 15.6958 22.8909 16.2833 23.3946 17.037C23.8982 17.7907 24.167 18.6769 24.167 19.5834C24.1656 20.7985 23.6822 21.9634 22.823 22.8227C21.9638 23.6819 20.7988 24.1653 19.5837 24.1667Z" fill="#FFAE00"/>
<path d="M21.9902 17.8367L18.7494 21.0775L17.2764 19.6042C17.1979 19.5283 17.0926 19.4863 16.9834 19.4872C16.8741 19.4882 16.7696 19.532 16.6924 19.6093C16.6151 19.6865 16.5713 19.791 16.5703 19.9003C16.5694 20.0095 16.6114 20.1148 16.6873 20.1934L18.4548 21.9613C18.5329 22.0394 18.6389 22.0833 18.7494 22.0833C18.8598 22.0833 18.9658 22.0394 19.0439 21.9613L22.5794 18.4259C22.6553 18.3473 22.6973 18.242 22.6963 18.1328C22.6954 18.0235 22.6515 17.919 22.5743 17.8418C22.497 17.7645 22.3925 17.7207 22.2833 17.7197C22.174 17.7188 22.0688 17.7608 21.9902 17.8367Z" fill="#FFAE00"/>
</svg>
