<svg width="26" height="26" viewBox="0 0 26 26" fill="none" xmlns="http://www.w3.org/2000/svg">
<path d="M19.0435 3.37695V1.79425H15.9787C15.4034 0.702 14.267 0 13 0C11.733 0 10.5966 0.702 10.0213 1.79425H6.95652V3.37695H3.04688V26H22.9531V3.37695H19.0435ZM8.47996 3.31769H11.0749L11.2469 2.79327C11.4959 2.03374 12.2004 1.52344 13 1.52344C13.7996 1.52344 14.5041 2.03374 14.7531 2.79327L14.9251 3.31769H17.52V5.1966H8.47996V3.31769ZM21.4297 24.4766H4.57031V4.90039H6.95652V6.72003H19.0435V4.90039H21.4297V24.4766Z" fill="#9E578F"/>
<path d="M12.2556 16.4429L10.6551 14.8604L9.58398 15.9437L12.2153 18.5454L16.3954 14.7181L15.3667 13.5944L12.2556 16.4429Z" fill="#9E578F"/>
<path d="M12.9999 9.42615C9.47992 9.42615 6.61621 12.2899 6.61621 15.8099C6.61621 19.3298 9.47992 22.1936 12.9999 22.1936C16.5199 22.1936 19.3836 19.3298 19.3836 15.8099C19.3836 12.2899 16.5199 9.42615 12.9999 9.42615ZM12.9999 20.6701C10.3199 20.6701 8.13965 18.4898 8.13965 15.8099C8.13965 13.1299 10.3199 10.9496 12.9999 10.9496C15.6799 10.9496 17.8602 13.1299 17.8602 15.8099C17.8602 18.4898 15.6799 20.6701 12.9999 20.6701Z" fill="#9E578F"/>
</svg>
