<svg width="16" height="16" viewBox="0 0 16 16" fill="none" xmlns="http://www.w3.org/2000/svg">
<path d="M10.784 10.784L14.841 14.841L10.784 10.784ZM1 6.72801C1 5.59536 1.33586 4.48814 1.9651 3.54636C2.59435 2.60458 3.48873 1.87054 4.53514 1.43705C5.58156 1.00355 6.73301 0.890083 7.84391 1.11098C8.95482 1.33188 9.97527 1.87722 10.7762 2.67806C11.5772 3.47889 12.1227 4.49925 12.3438 5.61011C12.5649 6.72098 12.4517 7.87246 12.0183 8.91894C11.585 9.96543 10.8511 10.8599 9.90948 11.4894C8.96781 12.1188 7.86065 12.4548 6.728 12.455C5.97584 12.4551 5.23101 12.3071 4.53606 12.0194C3.84112 11.7316 3.20966 11.3098 2.67775 10.778C2.14585 10.2461 1.72391 9.61477 1.43604 8.91987C1.14817 8.22497 1 7.48017 1 6.72801H1Z" stroke="white" stroke-width="1.5" stroke-miterlimit="10" stroke-linecap="round" stroke-linejoin="round"/>
</svg>
