<svg width="26" height="26" viewBox="0 0 26 26" fill="none" xmlns="http://www.w3.org/2000/svg">
<g clip-path="url(#clip0_97_29820)">
<path d="M13.0001 0L1.52637 3.26289V14.5262C1.52637 17.591 2.71985 20.4723 4.88694 22.6394C7.05403 24.8066 9.93535 26 13.0001 26C16.0649 26 18.9462 24.8065 21.1133 22.6394C23.2805 20.4723 24.4739 17.591 24.4739 14.5262V3.26289L13.0001 0ZM22.9508 14.5262C22.9508 20.0131 18.487 24.4769 13.0001 24.4769C7.51329 24.4769 3.04945 20.0131 3.04945 14.5262V4.41323L13.0001 1.58345L22.9508 4.41323V14.5262Z" fill="#007AFF"/>
<path d="M4.57227 5.56355V14.5262C4.57227 19.1732 8.35286 22.9538 12.9999 22.9538C17.6469 22.9538 21.4275 19.1732 21.4275 14.5262V5.56355L12.9999 3.16693L4.57227 5.56355ZM19.9044 14.5262C19.9044 18.3334 16.8071 21.4308 12.9999 21.4308C9.19268 21.4308 6.09535 18.3334 6.09535 14.5262V6.71393L12.9999 4.75038L19.9044 6.71388V14.5262Z" fill="#007AFF"/>
<path d="M12.239 7.69415V9.29308C11.7398 9.3934 11.2753 9.59049 10.8657 9.86373L9.73384 8.73188L8.65687 9.80885L9.78872 10.9407C9.51553 11.3504 9.31844 11.8148 9.21807 12.314H7.61914V13.8371H9.21807C9.31839 14.3363 9.51548 14.8007 9.78872 15.2104L8.65687 16.3423L9.73384 17.4192L10.8657 16.2874C11.2753 16.5606 11.7398 16.7577 12.239 16.858V18.457H13.7621V16.858C14.2612 16.7577 14.7257 16.5606 15.1354 16.2874L16.2672 17.4192L17.3442 16.3423L16.2124 15.2104C16.4856 14.8007 16.6826 14.3363 16.783 13.8371H18.3819V12.314H16.783C16.6827 11.8148 16.4856 11.3504 16.2124 10.9407L17.3442 9.80885L16.2672 8.73188L15.1354 9.86373C14.7257 9.59054 14.2612 9.39345 13.7621 9.29308V7.69415H12.239ZM15.3357 13.0755C15.3357 14.3631 14.2882 15.4107 13.0005 15.4107C11.7129 15.4107 10.6654 14.3631 10.6654 13.0755C10.6654 11.7879 11.7129 10.7403 13.0005 10.7403C14.2882 10.7403 15.3357 11.7879 15.3357 13.0755Z" fill="#007AFF"/>
</g>
<defs>
<clipPath id="clip0_97_29820">
<rect width="26" height="26" fill="white"/>
</clipPath>
</defs>
</svg>
