<svg width="13" height="17" viewBox="0 0 13 17" fill="none" xmlns="http://www.w3.org/2000/svg">
<path d="M4.5 13L4.5 1.33337" stroke="#007AFF" stroke-width="1.5" stroke-linecap="round"/>
<path d="M6.58398 11.3333H6.83398C7.38627 11.3333 7.83398 11.781 7.83398 12.3333V13.7296C7.83398 14.0606 7.67161 14.3731 7.39065 14.5481C5.31082 15.8441 3.90848 15.792 1.65913 14.5426C1.35131 14.3716 1.16732 14.0431 1.16732 13.691V12.3333C1.16732 11.781 1.61503 11.3333 2.16732 11.3333H2.41732" stroke="#007AFF" stroke-width="1.5" stroke-linecap="round"/>
<path d="M10.14 5.18714L11.999 6.85023C12.129 6.96655 12.194 7.0247 12.1835 7.0774C12.1802 7.09362 12.1731 7.10919 12.1626 7.12273C12.1285 7.16671 12.0367 7.16671 11.853 7.16671L8.66746 7.16671L4.66877 7.16671L4.66876 7.16671C4.59834 7.16671 4.56313 7.16671 4.53925 7.14936C4.53151 7.14373 4.5248 7.13691 4.51932 7.12911C4.50241 7.10504 4.50333 7.0702 4.50515 7.00053L4.60537 3.18076C4.60745 3.10141 4.6085 3.06174 4.63016 3.03352C4.63713 3.02444 4.64547 3.01641 4.65483 3.00976C4.68392 2.9891 4.72402 2.98916 4.80421 2.98927L6.76106 2.99207L7.62133 2.99328L9.34184 2.99573L11.0624 2.99818L11.9069 2.99939C12.0733 2.99963 12.1565 2.99975 12.1824 3.04129C12.1904 3.05414 12.1949 3.069 12.1957 3.08462C12.1983 3.13513 12.1327 3.19241 12.0017 3.30698L10.156 4.92074C10.0906 4.97793 10.0579 5.00652 10.05 5.04097C10.0474 5.05204 10.0468 5.06328 10.048 5.07421C10.0518 5.10823 10.0812 5.13453 10.14 5.18714Z" stroke="#007AFF" stroke-width="1.5" stroke-linejoin="round"/>
<ellipse cx="4.50033" cy="1.33333" rx="0.833333" ry="0.833333" fill="#007AFF"/>
</svg>
