<svg width="24" height="27" viewBox="0 0 24 27" fill="none" xmlns="http://www.w3.org/2000/svg">
<path d="M23.4548 11.4545C23.1537 11.4545 22.9093 11.2102 22.9093 10.9091C22.9093 7.70398 21.6613 4.6898 19.3944 2.42398C19.1817 2.21125 19.1817 1.86544 19.3944 1.65271C19.6071 1.43998 19.953 1.43998 20.1657 1.65271C22.6388 4.12471 24.0002 7.41162 24.0002 10.9091C24.0002 11.2102 23.7559 11.4545 23.4548 11.4545Z" fill="#BE8408"/>
<path d="M0.545454 11.4545C0.244364 11.4545 0 11.2102 0 10.9091C0 7.41162 1.36145 4.12471 3.83454 1.65271C4.04727 1.43998 4.39309 1.43998 4.60582 1.65271C4.81854 1.86544 4.81854 2.21125 4.60582 2.42398C2.33891 4.6898 1.09091 7.70398 1.09091 10.9091C1.09091 11.2102 0.846545 11.4545 0.545454 11.4545Z" fill="#BE8408"/>
<path d="M13.6365 4.56C13.3354 4.56 13.0911 4.31564 13.0911 4.01454V2.18182C13.0911 1.58073 12.6013 1.09091 12.0002 1.09091C11.3991 1.09091 10.9093 1.58073 10.9093 2.18182V4.01454C10.9093 4.31564 10.6649 4.56 10.3638 4.56C10.0627 4.56 9.81836 4.31673 9.81836 4.01454V2.18182C9.81836 0.978545 10.7969 0 12.0002 0C13.2034 0 14.182 0.978545 14.182 2.18182V4.01454C14.182 4.31673 13.9376 4.56 13.6365 4.56Z" fill="#BE8408"/>
<path d="M11.9998 26.1819C9.89437 26.1819 8.18164 24.4691 8.18164 22.3637C8.18164 22.0626 8.426 21.8182 8.72709 21.8182C9.02819 21.8182 9.27255 22.0626 9.27255 22.3637C9.27255 23.867 10.4965 25.091 11.9998 25.091C13.5031 25.091 14.7271 23.867 14.7271 22.3637C14.7271 22.0626 14.9715 21.8182 15.2725 21.8182C15.5736 21.8182 15.818 22.0626 15.818 22.3637C15.818 24.4691 14.1053 26.1819 11.9998 26.1819Z" fill="#BE8408"/>
<path d="M21.2726 22.9091H2.72718C1.825 22.9091 1.09082 22.1749 1.09082 21.2727C1.09082 20.7938 1.29918 20.3411 1.66355 20.0291C3.38282 18.576 4.36355 16.4618 4.36355 14.2232V10.9091C4.36355 6.69816 7.789 3.27271 11.9999 3.27271C16.2108 3.27271 19.6363 6.69816 19.6363 10.9091V14.2232C19.6363 16.4629 20.617 18.576 22.3275 20.0214C22.7006 20.3411 22.909 20.7938 22.909 21.2727C22.909 22.1749 22.1759 22.9091 21.2726 22.9091ZM11.9999 4.36361C8.39009 4.36361 5.45445 7.29925 5.45445 10.9091V14.2232C5.45445 16.7847 4.333 19.2011 2.377 20.8549C2.25155 20.9618 2.18173 21.1134 2.18173 21.2727C2.18173 21.5738 2.42609 21.8182 2.72718 21.8182H21.2726C21.5737 21.8182 21.8181 21.5738 21.8181 21.2727C21.8181 21.1134 21.7483 20.9618 21.6272 20.8582C19.6679 19.2011 18.5454 16.7836 18.5454 14.2232V10.9091C18.5454 7.29925 15.6097 4.36361 11.9999 4.36361Z" fill="#BE8408"/>
</svg>
