<svg width="21" height="24" viewBox="0 0 21 24" fill="none" xmlns="http://www.w3.org/2000/svg">
<path d="M20.688 3.51562L17.4843 0.311988C17.2831 0.110817 17.0156 0 16.731 0H3.24247C2.65512 0 2.17722 0.477896 2.17722 1.06525V11.612H1.42812C0.640635 11.612 0 12.2527 0 13.0401V19.5719C0 20.3594 0.640635 21 1.42812 21H12.6773C13.2647 21 13.7425 20.5222 13.7425 19.9348V14.8546C13.7425 14.2672 13.2646 13.7893 12.6773 13.7893H1.42812C1.01505 13.7893 0.679023 13.4533 0.679023 13.0402C0.679023 12.6271 1.01505 12.2911 1.42812 12.2911H2.17722V12.6774C2.17722 12.8649 2.32923 13.017 2.51673 13.017C2.70423 13.017 2.85624 12.8649 2.85624 12.6774V1.06525C2.85624 0.852264 3.02953 0.679023 3.24247 0.679023H16.3294V3.96825C16.3294 4.35557 16.6444 4.67068 17.0317 4.67068H20.321V22.1121C20.321 22.325 20.1477 22.4983 19.9348 22.4983H3.24247C3.02948 22.4983 2.85624 22.325 2.85624 22.1121C2.85624 21.9246 2.70423 21.7725 2.51673 21.7725C2.32923 21.7725 2.17722 21.9246 2.17722 22.1121C2.17722 22.6995 2.65512 23.1773 3.24247 23.1773H19.9348C20.5222 23.1773 21 22.6994 21 22.1121V4.26888C21 3.98437 20.8892 3.71684 20.688 3.51562ZM1.42812 14.4683H12.6773C12.8903 14.4683 13.0635 14.6416 13.0635 14.8546V19.9348C13.0635 20.1478 12.8902 20.3211 12.6773 20.3211H1.42812C1.01505 20.3211 0.679023 19.985 0.679023 19.5719V14.2556C0.896899 14.3905 1.15357 14.4683 1.42812 14.4683ZM17.0084 3.96825V0.796403L20.2037 3.99166H17.0317C17.0189 3.99166 17.0084 3.98116 17.0084 3.96825Z" fill="#34C759"/>
<path d="M6.50921 19.1782C6.53343 19.1824 6.55307 19.1857 6.87769 19.1857C7.03436 19.1857 7.26211 19.185 7.5956 19.1831C7.7831 19.1821 7.93425 19.0292 7.93321 18.8417C7.93217 18.6541 7.77844 18.5046 7.5918 18.504C7.35468 18.5054 7.10009 18.5063 6.90607 18.5065V15.9128C6.90607 15.7253 6.75406 15.5732 6.56656 15.5732C6.37906 15.5732 6.22705 15.7253 6.22705 15.9128V18.8436C6.22705 19.009 6.3462 19.1503 6.50921 19.1782Z" fill="black"/>
<path d="M9.95354 19.1858C10.5586 19.1858 11.0664 18.8007 11.1611 18.2702C11.2322 17.872 11.0501 17.3514 10.3257 17.0842C9.96092 16.9496 9.62159 16.803 9.52227 16.7595C9.42866 16.6867 9.43169 16.5839 9.43776 16.5413C9.44595 16.4844 9.48687 16.3454 9.69013 16.2842C10.1178 16.1553 10.5114 16.4669 10.5223 16.4757C10.6658 16.5949 10.8789 16.576 10.9991 16.433C11.1197 16.2894 11.1012 16.0753 10.9576 15.9546C10.9304 15.9318 10.2818 15.3968 9.49425 15.634C9.09956 15.7529 8.82034 16.0636 8.76562 16.4448C8.71437 16.8019 8.8691 17.1453 9.16941 17.3411C9.18444 17.3509 9.20014 17.3595 9.21653 17.3668C9.23351 17.3743 9.63662 17.5538 10.0907 17.7213C10.2257 17.7711 10.5351 17.9126 10.4926 18.1508C10.4614 18.3257 10.2512 18.5067 9.95345 18.5067C9.65441 18.5067 9.36632 18.3859 9.1829 18.1834C9.05701 18.0445 8.8423 18.0339 8.70333 18.1598C8.5644 18.2857 8.55381 18.5004 8.67974 18.6394C8.98983 18.9815 9.46596 19.1858 9.95354 19.1858Z" fill="black"/>
<path d="M2.67673 19.1236C2.73617 19.1655 2.80439 19.1856 2.87197 19.1856C2.97867 19.1856 3.08369 19.1354 3.14983 19.0415L3.97865 17.865L4.80619 19.0413C4.87228 19.1353 4.9774 19.1856 5.08419 19.1856C5.15168 19.1856 5.21985 19.1655 5.27925 19.1237C5.43261 19.0158 5.46946 18.804 5.36159 18.6507L4.39407 17.2754L5.21623 16.1083C5.32424 15.955 5.28748 15.7432 5.13421 15.6353C4.98093 15.5273 4.76912 15.564 4.66111 15.7173L3.97905 16.6855L3.29808 15.7174C3.19021 15.5641 2.9784 15.5272 2.82503 15.6351C2.67166 15.743 2.63481 15.9548 2.74269 16.1081L3.56363 17.2751L2.59471 18.6505C2.4867 18.8038 2.52345 19.0156 2.67673 19.1236Z" fill="black"/>
<path d="M16.2826 6.50833C16.2826 6.12102 15.9675 5.80591 15.5802 5.80591H7.59691C7.2096 5.80591 6.89453 6.12102 6.89453 6.50833V11.2257C6.89453 11.613 7.2096 11.9281 7.59691 11.9281H15.5801C15.9675 11.9281 16.2825 11.613 16.2825 11.2257V6.50833H16.2826ZM10.4766 9.4347V8.29932H12.7005V9.4347H10.4766ZM12.7005 10.1137V11.2491H10.4766V10.1137H12.7005ZM7.57355 8.29937H9.79753V9.43474H7.57355V8.29937ZM10.4766 7.62035V6.48498H12.7005V7.62035H10.4766ZM13.3796 8.29937H15.6035V9.43474H13.3796V8.29937ZM15.6035 6.50833V7.6203H13.3796V6.48493H15.5802C15.593 6.48498 15.6035 6.49543 15.6035 6.50833ZM7.59691 6.48498H9.79753V7.62035H7.57355V6.50838C7.57355 6.49543 7.58401 6.48498 7.59691 6.48498ZM7.57355 11.2257V10.1138H9.79753V11.2491H7.59691C7.58401 11.2491 7.57355 11.2386 7.57355 11.2257ZM15.5802 11.2491H13.3796V10.1137H15.6035V11.2257C15.6035 11.2386 15.593 11.2491 15.5802 11.2491Z" fill="#34C759"/>
</svg>
