<svg width="23" height="23" viewBox="0 0 23 23" fill="none" xmlns="http://www.w3.org/2000/svg">
<path d="M10.6246 12.8704C10.6502 12.8388 10.6692 12.8023 10.6803 12.7631C10.6915 12.724 10.6947 12.683 10.6896 12.6426C10.6846 12.6022 10.6715 12.5632 10.651 12.528C10.6306 12.4928 10.6032 12.4621 10.5706 12.4377C10.538 12.4133 10.5008 12.3958 10.4613 12.3861C10.4217 12.3764 10.3807 12.3748 10.3405 12.3814C10.3003 12.388 10.2619 12.4026 10.2275 12.4244C10.1931 12.4462 10.1634 12.4747 10.1403 12.5082C10.1353 12.5143 9.6737 13.1206 8.92216 13.1206C8.17945 13.1206 7.70732 12.5131 7.70401 12.5082C7.68089 12.4747 7.65124 12.4462 7.61684 12.4244C7.58245 12.4026 7.54401 12.388 7.50384 12.3814C7.46366 12.3748 7.42257 12.3764 7.38303 12.3861C7.34348 12.3958 7.3063 12.4133 7.2737 12.4377C7.24109 12.4621 7.21375 12.4928 7.1933 12.528C7.17285 12.5632 7.15971 12.6022 7.15467 12.6426C7.14963 12.683 7.1528 12.724 7.16398 12.7631C7.17515 12.8023 7.19412 12.8388 7.21973 12.8704C7.24568 12.9052 7.87132 13.7252 8.92216 13.7252C9.97299 13.7252 10.5986 12.9052 10.6246 12.8704Z" fill="#CDC1AC"/>
<mask id="path-2-inside-1_97_29859" fill="white">
<path d="M17.5692 19.0749C17.4808 17.9854 16.8121 17.0528 15.8656 16.7005L11.2631 14.9842C12.0656 14.5585 12.7371 13.9225 13.2058 13.1443C13.6745 12.3661 13.9226 11.4751 13.9236 10.5667V8.68919C14.5779 8.5042 14.9965 8.29271 15.2632 8.09613C15.4134 7.98562 15.5156 7.82186 15.549 7.6384C15.5824 7.45494 15.5443 7.26566 15.4426 7.10935C15.2164 6.74958 14.8828 6.47005 14.489 6.31032C14.4255 5.40029 13.9777 1.99599 10.829 0.93301L10.8732 0.457567C10.8802 0.38381 10.8598 0.310052 10.8159 0.250367C10.772 0.190682 10.7077 0.14925 10.6352 0.133979C9.25471 -0.159239 7.31042 0.118517 7.22815 0.130113C7.15153 0.141374 7.08216 0.181632 7.03438 0.242571C6.98659 0.30351 6.96404 0.380475 6.97137 0.457567L7.01555 0.93301C3.86802 1.99544 3.41908 5.40029 3.35558 6.31032C2.96167 6.46989 2.628 6.74945 2.40193 7.10935C2.30221 7.26519 2.26527 7.45304 2.29858 7.63504C2.33188 7.81703 2.43295 7.97963 2.5814 8.09005C2.84811 8.28664 3.26668 8.49813 3.92048 8.68311V10.5606C3.92157 11.4691 4.1698 12.3601 4.63856 13.1383C5.10732 13.9165 5.77896 14.5525 6.58152 14.9782L1.98005 16.6999C1.03359 17.0533 0.364874 17.9854 0.277075 19.0744L0.000975663 22.4837C-0.00544391 22.5634 0.0200041 22.6425 0.0717497 22.7036C0.123495 22.7646 0.197323 22.8027 0.277075 22.8095H0.301924C0.377506 22.8093 0.450306 22.7809 0.506 22.7298C0.561695 22.6787 0.596251 22.6086 0.602872 22.5334L0.878971 19.1241C0.947443 18.2671 1.46264 17.5382 2.18989 17.2665L3.01267 16.96V22.5085C3.01267 22.5891 3.04466 22.6663 3.10162 22.7233C3.15858 22.7802 3.23583 22.8122 3.31637 22.8122C3.39692 22.8122 3.47417 22.7802 3.53113 22.7233C3.58809 22.6663 3.62008 22.5891 3.62008 22.5085V16.7342L4.87302 16.267L5.35564 19.8999C5.36539 19.9726 5.40114 20.0392 5.45627 20.0876C5.5114 20.1359 5.58217 20.1626 5.65549 20.1628H12.1919C12.2652 20.1626 12.3359 20.1359 12.3911 20.0876C12.4462 20.0392 12.482 19.9726 12.4917 19.8999L12.9743 16.267L14.2273 16.7342V22.5085C14.2255 22.5493 14.232 22.59 14.2465 22.6282C14.2609 22.6664 14.2828 22.7013 14.3111 22.7308C14.3393 22.7603 14.3733 22.7837 14.4108 22.7997C14.4484 22.8158 14.4888 22.824 14.5296 22.824C14.5704 22.824 14.6108 22.8158 14.6484 22.7997C14.6859 22.7837 14.7198 22.7603 14.7481 22.7308C14.7763 22.7013 14.7983 22.6664 14.8127 22.6282C14.8271 22.59 14.8337 22.5493 14.8319 22.5085V16.96L15.6541 17.2665C16.3819 17.5382 16.8971 18.2671 16.9662 19.1241L17.2423 22.5334C17.2489 22.6087 17.2835 22.6789 17.3393 22.73C17.3952 22.7811 17.4681 22.8095 17.5438 22.8095H17.5681C17.6479 22.8028 17.7218 22.7648 17.7736 22.7037C17.8253 22.6426 17.8507 22.5635 17.8442 22.4837L17.5692 19.0749ZM2.90885 7.43515C3.05463 7.21095 3.31417 6.92326 3.71893 6.82441C3.78468 6.80846 3.84318 6.77088 3.88503 6.71771C3.92689 6.66454 3.94968 6.59886 3.94975 6.5312C3.94975 6.37051 3.99503 2.69231 7.07298 1.54926L7.45952 5.70897C7.46314 5.74849 7.47452 5.78691 7.49299 5.82204C7.51147 5.85716 7.53668 5.88831 7.56719 5.91369C7.5977 5.93907 7.63291 5.95819 7.67081 5.96997C7.70871 5.98174 7.74855 5.98594 7.78808 5.98231C7.8276 5.97869 7.86602 5.96731 7.90114 5.94884C7.93627 5.93036 7.96741 5.90515 7.99279 5.87464C8.01817 5.84413 8.0373 5.80892 8.04907 5.77102C8.06085 5.73312 8.06504 5.69327 8.06141 5.65375L7.60033 0.690595C8.12989 0.63151 9.30055 0.533218 10.2459 0.674581L9.78262 5.65431C9.77858 5.69401 9.78245 5.73411 9.79401 5.77231C9.80556 5.8105 9.82457 5.84603 9.84994 5.87684C9.8753 5.90764 9.90652 5.93312 9.94178 5.95179C9.97705 5.97046 10.0157 5.98196 10.0554 5.98562H10.0841C10.1596 5.98549 10.2324 5.95707 10.288 5.90596C10.3436 5.85485 10.378 5.78477 10.3845 5.70953L10.7711 1.54982C13.8496 2.69287 13.8943 6.37106 13.8948 6.53175C13.8949 6.59941 13.9177 6.6651 13.9596 6.71826C14.0014 6.77143 14.0599 6.80901 14.1257 6.82497C14.5304 6.92381 14.7883 7.2115 14.9363 7.4357C14.9532 7.46292 14.9593 7.49548 14.9533 7.52696C14.9474 7.55844 14.9299 7.58656 14.9043 7.60577C14.5056 7.89954 13.1289 8.57764 8.92229 8.59973C4.7162 8.57985 3.33901 7.90175 2.94033 7.60577C2.91453 7.58655 2.89695 7.55828 2.89111 7.52664C2.88527 7.49499 2.89161 7.46231 2.90885 7.43515ZM4.52514 10.5645V8.83221C5.48486 9.03431 6.82504 9.1812 8.69755 9.19997C8.70913 9.2008 8.72075 9.2008 8.73234 9.19997H9.11225C9.12383 9.2008 9.13545 9.2008 9.14704 9.19997C11.019 9.1812 12.3597 9.03431 13.3189 8.83221V10.5645C13.3254 11.146 13.2165 11.7231 12.9985 12.2622C12.7804 12.8014 12.4576 13.292 12.0486 13.7055C11.6397 14.1191 11.1528 14.4474 10.6161 14.6714C10.0794 14.8955 9.5036 15.0109 8.92202 15.0109C8.34043 15.0109 7.76462 14.8955 7.22792 14.6714C6.69123 14.4474 6.20432 14.1191 5.79538 13.7055C5.38645 13.292 5.06362 12.8014 4.84557 12.2622C4.62753 11.7231 4.51862 11.146 4.52514 10.5645ZM11.9246 19.5581H5.91723L5.45173 16.05L7.30877 15.3575C7.33283 15.3485 7.35565 15.3364 7.37669 15.3216C8.3816 15.6482 9.46409 15.6482 10.469 15.3216C10.4903 15.3363 10.5133 15.3484 10.5375 15.3575L12.3945 16.05L11.9246 19.5581Z"/>
</mask>
<path d="M17.5692 19.0749C17.4808 17.9854 16.8121 17.0528 15.8656 16.7005L11.2631 14.9842C12.0656 14.5585 12.7371 13.9225 13.2058 13.1443C13.6745 12.3661 13.9226 11.4751 13.9236 10.5667V8.68919C14.5779 8.5042 14.9965 8.29271 15.2632 8.09613C15.4134 7.98562 15.5156 7.82186 15.549 7.6384C15.5824 7.45494 15.5443 7.26566 15.4426 7.10935C15.2164 6.74958 14.8828 6.47005 14.489 6.31032C14.4255 5.40029 13.9777 1.99599 10.829 0.93301L10.8732 0.457567C10.8802 0.38381 10.8598 0.310052 10.8159 0.250367C10.772 0.190682 10.7077 0.14925 10.6352 0.133979C9.25471 -0.159239 7.31042 0.118517 7.22815 0.130113C7.15153 0.141374 7.08216 0.181632 7.03438 0.242571C6.98659 0.30351 6.96404 0.380475 6.97137 0.457567L7.01555 0.93301C3.86802 1.99544 3.41908 5.40029 3.35558 6.31032C2.96167 6.46989 2.628 6.74945 2.40193 7.10935C2.30221 7.26519 2.26527 7.45304 2.29858 7.63504C2.33188 7.81703 2.43295 7.97963 2.5814 8.09005C2.84811 8.28664 3.26668 8.49813 3.92048 8.68311V10.5606C3.92157 11.4691 4.1698 12.3601 4.63856 13.1383C5.10732 13.9165 5.77896 14.5525 6.58152 14.9782L1.98005 16.6999C1.03359 17.0533 0.364874 17.9854 0.277075 19.0744L0.000975663 22.4837C-0.00544391 22.5634 0.0200041 22.6425 0.0717497 22.7036C0.123495 22.7646 0.197323 22.8027 0.277075 22.8095H0.301924C0.377506 22.8093 0.450306 22.7809 0.506 22.7298C0.561695 22.6787 0.596251 22.6086 0.602872 22.5334L0.878971 19.1241C0.947443 18.2671 1.46264 17.5382 2.18989 17.2665L3.01267 16.96V22.5085C3.01267 22.5891 3.04466 22.6663 3.10162 22.7233C3.15858 22.7802 3.23583 22.8122 3.31637 22.8122C3.39692 22.8122 3.47417 22.7802 3.53113 22.7233C3.58809 22.6663 3.62008 22.5891 3.62008 22.5085V16.7342L4.87302 16.267L5.35564 19.8999C5.36539 19.9726 5.40114 20.0392 5.45627 20.0876C5.5114 20.1359 5.58217 20.1626 5.65549 20.1628H12.1919C12.2652 20.1626 12.3359 20.1359 12.3911 20.0876C12.4462 20.0392 12.482 19.9726 12.4917 19.8999L12.9743 16.267L14.2273 16.7342V22.5085C14.2255 22.5493 14.232 22.59 14.2465 22.6282C14.2609 22.6664 14.2828 22.7013 14.3111 22.7308C14.3393 22.7603 14.3733 22.7837 14.4108 22.7997C14.4484 22.8158 14.4888 22.824 14.5296 22.824C14.5704 22.824 14.6108 22.8158 14.6484 22.7997C14.6859 22.7837 14.7198 22.7603 14.7481 22.7308C14.7763 22.7013 14.7983 22.6664 14.8127 22.6282C14.8271 22.59 14.8337 22.5493 14.8319 22.5085V16.96L15.6541 17.2665C16.3819 17.5382 16.8971 18.2671 16.9662 19.1241L17.2423 22.5334C17.2489 22.6087 17.2835 22.6789 17.3393 22.73C17.3952 22.7811 17.4681 22.8095 17.5438 22.8095H17.5681C17.6479 22.8028 17.7218 22.7648 17.7736 22.7037C17.8253 22.6426 17.8507 22.5635 17.8442 22.4837L17.5692 19.0749ZM2.90885 7.43515C3.05463 7.21095 3.31417 6.92326 3.71893 6.82441C3.78468 6.80846 3.84318 6.77088 3.88503 6.71771C3.92689 6.66454 3.94968 6.59886 3.94975 6.5312C3.94975 6.37051 3.99503 2.69231 7.07298 1.54926L7.45952 5.70897C7.46314 5.74849 7.47452 5.78691 7.49299 5.82204C7.51147 5.85716 7.53668 5.88831 7.56719 5.91369C7.5977 5.93907 7.63291 5.95819 7.67081 5.96997C7.70871 5.98174 7.74855 5.98594 7.78808 5.98231C7.8276 5.97869 7.86602 5.96731 7.90114 5.94884C7.93627 5.93036 7.96741 5.90515 7.99279 5.87464C8.01817 5.84413 8.0373 5.80892 8.04907 5.77102C8.06085 5.73312 8.06504 5.69327 8.06141 5.65375L7.60033 0.690595C8.12989 0.63151 9.30055 0.533218 10.2459 0.674581L9.78262 5.65431C9.77858 5.69401 9.78245 5.73411 9.79401 5.77231C9.80556 5.8105 9.82457 5.84603 9.84994 5.87684C9.8753 5.90764 9.90652 5.93312 9.94178 5.95179C9.97705 5.97046 10.0157 5.98196 10.0554 5.98562H10.0841C10.1596 5.98549 10.2324 5.95707 10.288 5.90596C10.3436 5.85485 10.378 5.78477 10.3845 5.70953L10.7711 1.54982C13.8496 2.69287 13.8943 6.37106 13.8948 6.53175C13.8949 6.59941 13.9177 6.6651 13.9596 6.71826C14.0014 6.77143 14.0599 6.80901 14.1257 6.82497C14.5304 6.92381 14.7883 7.2115 14.9363 7.4357C14.9532 7.46292 14.9593 7.49548 14.9533 7.52696C14.9474 7.55844 14.9299 7.58656 14.9043 7.60577C14.5056 7.89954 13.1289 8.57764 8.92229 8.59973C4.7162 8.57985 3.33901 7.90175 2.94033 7.60577C2.91453 7.58655 2.89695 7.55828 2.89111 7.52664C2.88527 7.49499 2.89161 7.46231 2.90885 7.43515ZM4.52514 10.5645V8.83221C5.48486 9.03431 6.82504 9.1812 8.69755 9.19997C8.70913 9.2008 8.72075 9.2008 8.73234 9.19997H9.11225C9.12383 9.2008 9.13545 9.2008 9.14704 9.19997C11.019 9.1812 12.3597 9.03431 13.3189 8.83221V10.5645C13.3254 11.146 13.2165 11.7231 12.9985 12.2622C12.7804 12.8014 12.4576 13.292 12.0486 13.7055C11.6397 14.1191 11.1528 14.4474 10.6161 14.6714C10.0794 14.8955 9.5036 15.0109 8.92202 15.0109C8.34043 15.0109 7.76462 14.8955 7.22792 14.6714C6.69123 14.4474 6.20432 14.1191 5.79538 13.7055C5.38645 13.292 5.06362 12.8014 4.84557 12.2622C4.62753 11.7231 4.51862 11.146 4.52514 10.5645ZM11.9246 19.5581H5.91723L5.45173 16.05L7.30877 15.3575C7.33283 15.3485 7.35565 15.3364 7.37669 15.3216C8.3816 15.6482 9.46409 15.6482 10.469 15.3216C10.4903 15.3363 10.5133 15.3484 10.5375 15.3575L12.3945 16.05L11.9246 19.5581Z" fill="#CDC1AC" stroke="#CDC1AC" stroke-width="16" mask="url(#path-2-inside-1_97_29859)"/>
<path d="M21.2868 11.9969L19.6777 11.3282C20.1439 11.0229 20.499 10.5754 20.6904 10.0521C20.8818 9.52878 20.8991 8.95769 20.7399 8.42374C20.5806 7.8898 20.2533 7.42152 19.8065 7.08856C19.3597 6.7556 18.8174 6.57574 18.2602 6.57574C17.703 6.57574 17.1607 6.7556 16.714 7.08856C16.2672 7.42152 15.9398 7.8898 15.7806 8.42374C15.6213 8.95769 15.6387 9.52878 15.83 10.0521C16.0214 10.5754 16.3766 11.0229 16.8427 11.3282L15.2325 11.9969C14.9341 12.1205 14.6791 12.3301 14.4999 12.5988C14.3207 12.8676 14.2253 13.1835 14.2259 13.5066V14.4453C14.2241 14.4861 14.2306 14.5268 14.2451 14.565C14.2595 14.6032 14.2815 14.6381 14.3097 14.6676C14.3379 14.6971 14.3719 14.7205 14.4094 14.7366C14.447 14.7526 14.4874 14.7608 14.5282 14.7608C14.569 14.7608 14.6094 14.7526 14.647 14.7366C14.6845 14.7205 14.7184 14.6971 14.7467 14.6676C14.7749 14.6381 14.7969 14.6032 14.8113 14.565C14.8257 14.5268 14.8323 14.4861 14.8305 14.4453V13.5066C14.8301 13.303 14.8902 13.104 15.0032 12.9346C15.1161 12.7653 15.2769 12.6334 15.465 12.5557L17.6009 11.6672C18.0324 11.7806 18.4859 11.7806 18.9173 11.6672L21.0532 12.5557C21.2414 12.6334 21.4021 12.7653 21.5151 12.9346C21.6281 13.104 21.6881 13.303 21.6877 13.5066V14.4453C21.686 14.4861 21.6925 14.5268 21.7069 14.565C21.7213 14.6032 21.7433 14.6381 21.7716 14.6676C21.7998 14.6971 21.8337 14.7205 21.8713 14.7366C21.9088 14.7526 21.9492 14.7608 21.99 14.7608C22.0309 14.7608 22.0713 14.7526 22.1088 14.7366C22.1464 14.7205 22.1803 14.6971 22.2085 14.6676C22.2368 14.6381 22.2588 14.6032 22.2732 14.565C22.2876 14.5268 22.2941 14.4861 22.2924 14.4453V13.5066C22.293 13.1837 22.1978 12.8678 22.0188 12.5991C21.8398 12.3303 21.585 12.1207 21.2868 11.9969ZM16.2773 9.16464C16.2773 8.77245 16.3936 8.38907 16.6115 8.06298C16.8294 7.73688 17.139 7.48272 17.5014 7.33264C17.8637 7.18256 18.2624 7.14329 18.6471 7.2198C19.0317 7.29631 19.3851 7.48517 19.6624 7.76249C19.9397 8.03981 20.1286 8.39313 20.2051 8.77779C20.2816 9.16244 20.2423 9.56115 20.0922 9.92348C19.9421 10.2858 19.688 10.5955 19.3619 10.8134C19.0358 11.0313 18.6524 11.1476 18.2602 11.1476C17.7347 11.1463 17.2311 10.9369 16.8595 10.5653C16.4879 10.1938 16.2786 9.69015 16.2773 9.16464Z" fill="#CDC1AC"/>
<path d="M7.22212 9.87141C7.21879 9.79346 7.18548 9.71981 7.12915 9.66584C7.07281 9.61186 6.99781 9.58173 6.91979 9.58173C6.84177 9.58173 6.76677 9.61186 6.71044 9.66584C6.6541 9.71981 6.6208 9.79346 6.61746 9.87141V10.7433C6.61572 10.7841 6.62225 10.8248 6.63666 10.863C6.65106 10.9012 6.67305 10.9361 6.7013 10.9656C6.72954 10.9951 6.76346 11.0185 6.80101 11.0346C6.83856 11.0506 6.87897 11.0589 6.91979 11.0589C6.96062 11.0589 7.00102 11.0506 7.03857 11.0346C7.07612 11.0185 7.11004 10.9951 7.13829 10.9656C7.16653 10.9361 7.18852 10.9012 7.20293 10.863C7.21734 10.8248 7.22386 10.7841 7.22212 10.7433V9.87141Z" fill="#CDC1AC"/>
<path d="M10.9255 11.046C10.9652 11.046 11.0045 11.0382 11.0412 11.0229C11.0779 11.0077 11.1112 10.9854 11.1393 10.9573C11.1673 10.9292 11.1896 10.8959 11.2047 10.8591C11.2198 10.8224 11.2276 10.7831 11.2275 10.7434V9.87146C11.2275 9.79091 11.1955 9.71366 11.1386 9.6567C11.0816 9.59975 11.0044 9.56775 10.9238 9.56775C10.8433 9.56775 10.766 9.59975 10.7091 9.6567C10.6521 9.71366 10.6201 9.79091 10.6201 9.87146V10.7434C10.6201 10.7834 10.628 10.8229 10.6434 10.8598C10.6588 10.8967 10.6813 10.9302 10.7097 10.9583C10.7381 10.9865 10.7718 11.0087 10.8088 11.0237C10.8459 11.0388 10.8855 11.0463 10.9255 11.046Z" fill="#CDC1AC"/>
</svg>
