<svg width="17" height="17" viewBox="0 0 17 17" fill="none" xmlns="http://www.w3.org/2000/svg">
<circle cx="8.5" cy="8.5" r="8.5" fill="#E2F0FF"/>
<path d="M5.062 10.4433H5.10781L7.31792 9.96232C7.36097 9.95515 7.40086 9.9352 7.43242 9.90507L11.177 6.16048C11.4505 5.88753 11.6031 5.51628 11.6007 5.12988C11.6012 4.74047 11.4491 4.36639 11.177 4.0878C10.9041 3.81426 10.5328 3.66164 10.1464 3.66412C9.7575 3.66068 9.38449 3.81816 9.11577 4.09927L5.38263 7.84383C5.3497 7.87033 5.3257 7.90629 5.31391 7.94689L4.83297 10.157C4.81985 10.2363 4.84536 10.3172 4.90169 10.3746C4.94397 10.4177 5.00159 10.4424 5.062 10.4433ZM10.1464 4.12217C10.6966 4.12213 11.1427 4.56815 11.1427 5.11837C11.1427 5.1222 11.1427 5.12604 11.1426 5.12988C11.1464 5.392 11.043 5.6443 10.8564 5.8284L9.44785 4.40843C9.63342 4.22403 9.88476 4.12101 10.1464 4.12217ZM9.12721 4.74054L10.5357 6.14904L7.27209 9.4012L5.86358 8.00414L9.12721 4.74054ZM5.68037 8.46221L6.81404 9.59588L5.35972 9.91653L5.68037 8.46221Z" fill="#2F2E41"/>
<path d="M12.334 11.6801H4.66164C4.53515 11.6801 4.43262 11.7826 4.43262 11.9091C4.43262 12.0356 4.53515 12.1381 4.66164 12.1381H12.334C12.4605 12.1381 12.5631 12.0356 12.5631 11.9091C12.5631 11.7826 12.4605 11.6801 12.334 11.6801Z" fill="#2F2E41"/>
</svg>
