<svg width="30" height="31" viewBox="0 0 30 31" fill="none" xmlns="http://www.w3.org/2000/svg">
<path d="M25.7534 13.511L24.4878 12.7664C24.4502 12.6138 24.4092 12.4622 24.3642 12.3127L25.2646 10.9499C25.3601 10.8056 25.3742 10.6221 25.3017 10.4648C24.987 9.78493 24.6035 9.13906 24.1572 8.53731C24.0567 8.40425 23.8975 8.32875 23.7309 8.33519L22.0532 8.41769C21.9477 8.30957 21.84 8.20407 21.7299 8.10125L21.8139 6.47576C21.8228 6.3042 21.743 6.14007 21.6025 6.0412C20.9844 5.60483 20.3244 5.2312 19.6323 4.9257C19.4802 4.85846 19.3047 4.87133 19.1641 4.96014L17.7578 5.84614C17.6054 5.80245 17.4502 5.76189 17.2934 5.72508L16.5274 4.26902C16.4409 4.10471 16.2706 4.00177 16.085 4.00171H13.9151C13.7295 4.00177 13.5591 4.10471 13.4727 4.26902L12.7071 5.72508C12.5508 5.7617 12.3959 5.80208 12.2423 5.84614L10.8365 4.96014C10.6961 4.87146 10.5207 4.85846 10.3688 4.92545C9.67623 5.23089 9.01585 5.6047 8.39761 6.04139C8.25748 6.14032 8.17786 6.30414 8.18667 6.47545L8.27067 8.10119C8.16029 8.204 8.05254 8.30925 7.94742 8.41713L6.26918 8.33463C6.1028 8.33013 5.94424 8.40531 5.84243 8.537C5.39699 9.13912 5.01387 9.78493 4.69887 10.4645C4.6265 10.6216 4.64037 10.8049 4.7355 10.9494L5.63581 12.3127C5.59087 12.4622 5.54987 12.6137 5.51224 12.7664L4.24662 13.5107C4.09381 13.6005 4 13.7644 4 13.9416V16.0615C4 16.2387 4.09381 16.4026 4.24656 16.4924L5.51218 17.2368C5.54981 17.3893 5.59081 17.541 5.63574 17.6906L4.73537 19.0532C4.63987 19.1976 4.62581 19.3811 4.69825 19.5383C5.013 20.2183 5.39649 20.8642 5.8428 21.4661C5.94368 21.5986 6.10262 21.674 6.26905 21.6682L7.94679 21.5857C8.05229 21.6939 8.15998 21.7993 8.27004 21.9021L8.18611 23.5273C8.17723 23.6989 8.25704 23.863 8.39754 23.9619C9.0156 24.3982 9.6756 24.772 10.3677 25.0776C10.5198 25.1446 10.6953 25.1317 10.836 25.0432L12.2422 24.1572C12.3945 24.2009 12.5498 24.2414 12.7066 24.2782L13.4727 25.7343C13.5591 25.8986 13.7295 26.0016 13.9151 26.0017H16.085C16.2706 26.0016 16.441 25.8987 16.5274 25.7344L17.293 24.2783C17.4493 24.2417 17.6042 24.2013 17.7579 24.1572L19.1636 25.0432C19.3041 25.1317 19.4794 25.1447 19.6314 25.0779C20.3239 24.7725 20.9843 24.3987 21.6025 23.962C21.7427 23.8631 21.8223 23.6992 21.8135 23.5279L21.7295 21.9022C21.8399 21.7994 21.9476 21.694 22.0527 21.586L23.731 21.6685C23.8977 21.6757 24.0573 21.6 24.1572 21.4664C24.603 20.8643 24.9863 20.2184 25.3013 19.5386C25.3737 19.3815 25.3598 19.1982 25.2647 19.0538L24.3643 17.6907C24.4092 17.5413 24.4502 17.3897 24.4878 17.2371L25.7535 16.4927C25.9063 16.403 26.0001 16.239 26 16.0618V13.942C26 13.7647 25.9062 13.6007 25.7534 13.511ZM25 15.7757L23.7958 16.4839C23.676 16.5543 23.5909 16.6714 23.561 16.8072C23.5009 17.0801 23.4267 17.3511 23.3412 17.6126C23.2937 17.7575 23.315 17.9161 23.3989 18.0435L24.2738 19.3685C24.0512 19.8163 23.7953 20.2468 23.5082 20.6563L21.873 20.576C21.7262 20.5717 21.5844 20.6295 21.4824 20.7351C21.2934 20.938 21.0932 21.1341 20.8862 21.3179C20.7725 21.4186 20.7109 21.5656 20.7187 21.7173L20.8002 23.2998C20.3754 23.5834 19.9302 23.8352 19.4682 24.0532L18.0986 23.1899C17.9747 23.1116 17.8225 23.0918 17.6826 23.136C17.4141 23.22 17.1358 23.2925 16.8559 23.3513C16.71 23.3818 16.5854 23.4759 16.5161 23.6079L15.7832 25.0017H14.2168L13.4838 23.6079C13.4145 23.4761 13.2901 23.3821 13.1445 23.3513C12.8622 23.2918 12.5839 23.2195 12.3173 23.136C12.1775 23.0918 12.0253 23.1115 11.9013 23.1899L10.5312 24.0532C10.0693 23.8349 9.6241 23.5829 9.19916 23.2993L9.28123 21.7173C9.28898 21.5653 9.22716 21.418 9.11323 21.3171C8.90717 21.1345 8.70648 20.9384 8.51704 20.7349C8.41579 20.6281 8.27348 20.5701 8.12642 20.5757L6.49168 20.656C6.2043 20.2467 5.94824 19.8163 5.72555 19.3684L6.60055 18.0437C6.6848 17.9165 6.70624 17.7576 6.65868 17.6126C6.57324 17.3511 6.49899 17.0799 6.43893 16.8069C6.40899 16.6712 6.32393 16.554 6.20405 16.4837L4.99993 15.7754V14.2278L6.20405 13.5195C6.32386 13.4492 6.40899 13.332 6.43893 13.1963C6.49899 12.9234 6.57318 12.6524 6.65868 12.3909C6.70618 12.2459 6.68493 12.0873 6.60105 11.9599L5.72605 10.6347C5.9488 10.187 6.20474 9.7565 6.49168 9.34694L8.12692 9.4275C8.27429 9.43487 8.41729 9.37656 8.51754 9.26831C8.70648 9.06544 8.90673 8.86938 9.11373 8.68556C9.22741 8.58481 9.28904 8.43782 9.28123 8.28613L9.19966 6.70363C9.62447 6.42001 10.0697 6.1682 10.5317 5.9502L11.9013 6.81351C12.0253 6.89163 12.1774 6.91132 12.3173 6.86745C12.5858 6.78345 12.8641 6.71095 13.144 6.65214C13.2899 6.6217 13.4145 6.52757 13.4838 6.39557L14.2167 5.00177H15.7831L16.5161 6.39557C16.5854 6.52732 16.7098 6.62139 16.8554 6.65214C17.1377 6.7117 17.416 6.78395 17.6826 6.86745C17.8224 6.91101 17.9744 6.89132 18.0986 6.81351L19.4687 5.95026C19.9307 6.16845 20.3759 6.42032 20.8008 6.70395L20.7187 8.28619C20.711 8.43819 20.7728 8.58544 20.8867 8.68631C21.0928 8.86894 21.2935 9.065 21.4829 9.26856C21.5839 9.37575 21.7264 9.43381 21.8735 9.42775L23.5083 9.34744C23.7957 9.75675 24.0517 10.1872 24.2744 10.6351L23.3994 11.9597C23.3152 12.087 23.2937 12.2459 23.3413 12.3909C23.4267 12.6524 23.501 12.9233 23.561 13.1963C23.591 13.332 23.676 13.4492 23.7959 13.5195L25 14.2278V15.7757H25Z" fill="#34C759"/>
<path d="M15 7.50174C10.8579 7.50174 7.5 10.8596 7.5 15.0017C7.5 19.1438 10.8579 22.5017 15 22.5017C19.1421 22.5017 22.4999 19.1438 22.4999 15.0017C22.4954 10.8615 19.1402 7.5063 15 7.50174ZM15 21.5017C11.4101 21.5017 8.5 18.5916 8.5 15.0017C8.5 11.4118 11.4101 8.50174 15 8.50174C18.5898 8.50174 21.4999 11.4118 21.4999 15.0017C21.4959 18.5898 18.5881 21.4976 15 21.5017Z" fill="#34C759"/>
<path d="M25.5 2.00174V5.00173H22.5V6.00172H26C26.276 6.00178 26.4999 5.77804 26.5 5.50197C26.5 5.50191 26.5 5.50179 26.5 5.50172V2.00174H25.5Z" fill="#34C759"/>
<path d="M4 24.0016C3.72394 24.0016 3.50006 24.2253 3.5 24.5014C3.5 24.5015 3.5 24.5016 3.5 24.5016V28.0016H4.5V25.0016H7.49998V24.0016H4Z" fill="#34C759"/>
<path d="M2.5862 6.58287C0.901332 9.06711 0.000461394 11.9997 2.3896e-05 15.0014C-0.00535108 18.0054 0.896145 20.9411 2.58645 23.4245L3.41357 22.862C-0.926722 16.462 0.742895 7.7553 7.14287 3.41501C11.8878 0.197024 18.1152 0.196962 22.8603 3.41482L23.4228 2.5877C16.5656 -2.06297 7.2368 -0.274224 2.5862 6.58287Z" fill="#34C759"/>
<path d="M27.5121 6.72565L26.6781 7.27789C30.9429 13.7286 29.1709 22.4151 22.7203 26.6798C17.9878 29.8086 11.8351 29.7725 7.13965 26.5884L6.57715 27.4155C13.4344 32.066 22.7633 30.2772 27.4138 23.4199C30.8258 18.389 30.8646 11.7964 27.5121 6.72565Z" fill="#34C759"/>
</svg>
