<svg width="90" height="90" viewBox="0 0 90 90" fill="none" xmlns="http://www.w3.org/2000/svg">
<path d="M45.0044 84.9616L62.8337 80.4591C73.0106 72.0086 79.4927 59.2624 79.4927 45.0007C79.4927 23.0027 64.0747 4.60601 43.4554 0.0267334C19.3178 0.840776 0 20.6647 0 45.0005C0 57.5007 5.09766 68.8094 13.3263 76.9639L45.0044 84.9616Z" fill="#CBE2FF"/>
<path d="M78.5588 45C78.5588 59.7507 71.4606 72.8422 60.4947 81.049L76.672 76.9637C84.9012 68.8092 89.9997 57.5005 89.9997 45C89.9997 20.1472 69.8526 0 44.9997 0C43.0619 0 41.1526 0.122695 39.2793 0.360352C61.4311 3.17074 78.5588 22.0852 78.5588 45Z" fill="#BED8FB"/>
<path d="M56.184 17.0423C56.184 14.744 54.3209 12.8809 52.0225 12.8809H37.6819C32.3925 12.8809 28.1045 17.1689 28.1045 22.4583V33.0918H61.8912V22.6091C61.8912 20.3108 60.0281 18.4477 57.7298 18.4477H57.5895C56.8133 18.4477 56.184 17.8186 56.184 17.0423V17.0423Z" fill="#365E7D"/>
<path d="M57.7298 18.4476H57.5895C56.8133 18.4476 56.184 17.8183 56.184 17.0421C56.184 14.7437 54.3209 12.8806 52.0226 12.8806H50.4502V33.0916H61.8911V22.6089C61.8913 20.3109 60.028 18.4476 57.7298 18.4476V18.4476Z" fill="#2B4D66"/>
<path d="M74.7152 65.4528C73.615 64.3662 72.2541 63.5257 70.7091 63.0367L58.4236 59.147L45.003 58.6754L31.5769 59.147L19.2913 63.0367C15.1352 64.3526 12.3105 68.2096 12.3105 72.5692V75.9255C20.1836 84.2449 31.1984 89.5605 43.456 89.974C57.1894 86.9236 68.6154 77.7438 74.7152 65.4528V65.4528Z" fill="#4A80AA"/>
<path d="M77.6896 75.9255V72.5692C77.6896 69.4867 76.2763 66.6568 73.9798 64.7974C67.4563 78.091 54.5696 87.696 39.29 89.6382C41.1343 89.8718 43.0127 89.9965 44.9196 89.9998C46.7518 89.997 48.5597 89.8908 50.3379 89.6866C61.066 88.4188 70.638 83.3771 77.6896 75.9255Z" fill="#407093"/>
<path d="M46.0187 89.3263C48.7414 83.9209 55.8312 68.5724 53.8095 58.9849L45.0027 55.5574L36.1876 58.9851C34.1036 68.8684 41.7019 84.8736 44.2175 89.7978C44.8225 89.6526 45.4232 89.4953 46.0187 89.3263V89.3263Z" fill="#E4F6FF"/>
<path d="M50.6603 85.0409L47.0894 70.993H42.9116L39.3496 85.0026L43.7543 89.9064C44.8725 89.6503 45.9752 89.3534 47.0608 89.0175L50.6603 85.0409Z" fill="#E28086"/>
<path d="M43.8233 89.9831C44.188 89.9926 44.5535 89.9991 44.9203 89.9998C45.3448 89.9991 45.7679 89.9917 46.1898 89.98L48.4586 87.4735C46.6728 88.1 44.8358 88.6171 42.9551 89.0167L43.8233 89.9831Z" fill="#DD636E"/>
<path d="M52.5199 57.6882V49.7665H37.4766V57.6882C37.4766 61.8423 44.9982 66.3799 44.9982 66.3799C44.9982 66.3799 52.5199 61.8423 52.5199 57.6882Z" fill="#FFDDCE"/>
<path d="M61.8912 31.6963H59.0156C57.4164 31.6963 56.12 30.3999 56.12 28.8007V27.216C56.12 25.1328 54.0818 23.6599 52.1039 24.3137C47.4909 25.8384 42.5099 25.8387 37.8967 24.3147L37.8913 24.313C35.9134 23.6596 33.8756 25.1325 33.8756 27.2155V28.8008C33.8756 30.4001 32.5792 31.6965 30.9799 31.6965H28.1045V36.4317C28.1045 37.6416 29.0853 38.6226 30.2954 38.6226C30.6772 38.6226 30.9878 38.9216 31.0119 39.3027C31.4739 46.6272 37.5571 52.4255 44.9979 52.4255C52.4388 52.4255 58.522 46.6272 58.984 39.3027C59.0081 38.9218 59.3187 38.6226 59.7005 38.6226C60.9104 38.6226 61.8914 37.6418 61.8914 36.4317V31.6963H61.8912Z" fill="#FFDDCE"/>
<path d="M59.016 31.6962C57.4167 31.6962 56.1203 30.3998 56.1203 28.8006V27.2159C56.1203 25.1327 54.0821 23.6599 52.1043 24.3136C51.5579 24.4941 51.0062 24.6516 50.4507 24.7894V40.429C50.3737 45.5176 47.5854 49.9462 43.4678 52.3396C43.9707 52.3943 44.4808 52.4251 44.9981 52.4251C52.4389 52.4251 58.5222 46.6267 58.9842 39.3023C59.0082 38.9214 59.3188 38.6222 59.7006 38.6222C60.9105 38.6222 61.8916 37.6413 61.8916 36.4313V31.6961H59.016V31.6962Z" fill="#FFCBBE"/>
<path d="M37.476 55.5576L31.5771 60.3506L37.7632 67.9994C38.5158 68.7321 39.7002 68.7771 40.5063 68.1038L45.1584 64.2178L37.476 55.5576Z" fill="#F4FBFF"/>
<path d="M52.522 55.5574L45.1582 64.2176L49.5306 67.9561C50.3316 68.6409 51.5217 68.6065 52.2817 67.8765L58.4235 60.3504L52.522 55.5574Z" fill="#F4FBFF"/>
<path d="M37.476 55.5574L28.8177 59.8111C28.1585 60.1349 27.8938 60.9368 28.2304 61.5895L29.9267 64.8783C30.3663 65.7305 30.2041 66.7691 29.5255 67.4465C29.1763 67.7951 28.798 68.1727 28.4702 68.5C27.8834 69.0857 27.6726 69.951 27.931 70.7389C29.9791 76.9821 39.8358 86.529 43.5661 89.9831C43.8169 89.9897 44.0683 89.9943 44.3202 89.9971C41.6151 84.7355 32.0292 64.7453 37.476 55.5574Z" fill="#365E7D"/>
<path d="M60.472 67.4463C59.7933 66.7689 59.6313 65.7304 60.0709 64.8782L61.7672 61.5893C62.1038 60.9366 61.8391 60.1347 61.1799 59.8109L52.5216 55.5574C57.967 64.7428 48.3878 84.7246 45.6797 89.9929C45.9342 89.9885 46.1882 89.9822 46.4417 89.9738C50.1797 86.5117 60.0204 76.9765 62.0665 70.7391C62.3249 69.9512 62.1142 69.0858 61.5274 68.5001C61.1996 68.1727 60.8213 67.7949 60.472 67.4463Z" fill="#365E7D"/>
<path d="M45.158 64.2177L40.5771 68.0434L42.9112 70.9931H47.089L49.4232 67.8693L45.158 64.2177Z" fill="#DD636E"/>
</svg>
