<svg width="58" height="32" viewBox="0 0 58 32" fill="none" xmlns="http://www.w3.org/2000/svg">
<rect width="58" height="32" rx="10" fill="#E8F3FF"/>
<path d="M24.4746 19.9268H29.1914V21H23.1553V11.0469H24.4746V19.9268ZM30.1553 17.2334C30.1553 16.5088 30.2965 15.8571 30.5791 15.2783C30.8662 14.6995 31.2627 14.2529 31.7686 13.9385C32.279 13.624 32.86 13.4668 33.5117 13.4668C34.5189 13.4668 35.3324 13.8154 35.9521 14.5127C36.5765 15.21 36.8887 16.1374 36.8887 17.2949V17.3838C36.8887 18.1038 36.7497 18.751 36.4717 19.3252C36.1982 19.8949 35.804 20.3392 35.2891 20.6582C34.7786 20.9772 34.1908 21.1367 33.5254 21.1367C32.5228 21.1367 31.7093 20.7881 31.085 20.0908C30.4652 19.3936 30.1553 18.4707 30.1553 17.3223V17.2334ZM31.4268 17.3838C31.4268 18.2041 31.6159 18.8626 31.9941 19.3594C32.377 19.8561 32.8874 20.1045 33.5254 20.1045C34.168 20.1045 34.6784 19.8538 35.0566 19.3525C35.4349 18.8467 35.624 18.1403 35.624 17.2334C35.624 16.4222 35.4303 15.766 35.043 15.2646C34.6602 14.7588 34.1497 14.5059 33.5117 14.5059C32.8874 14.5059 32.3838 14.7542 32.001 15.251C31.6182 15.7477 31.4268 16.4587 31.4268 17.3838ZM45.0234 19.2568L46.4453 13.6035H47.71L45.5566 21H44.5312L42.7334 15.3945L40.9834 21H39.958L37.8115 13.6035H39.0693L40.5254 19.1406L42.248 13.6035H43.2666L45.0234 19.2568Z" fill="#2E3749"/>
<path d="M13.6741 22.9978C13.6876 22.9866 13.7002 22.9741 13.7114 22.9605L17.8943 18.8657C18.028 18.7417 18.0359 18.5328 17.912 18.399C17.8505 18.3327 17.7645 18.2945 17.6741 18.2933H15.4726V12.9876C15.4726 12.7895 15.4285 12.5693 15.2524 12.5693H11.73C11.5066 12.5955 11.3273 12.7659 11.2897 12.9876V18.2933H9.30836C9.17664 18.2965 9.05777 18.3729 9.00016 18.4914V18.6235C9.00379 18.7155 9.04331 18.8024 9.11023 18.8657L13.2711 22.9605C13.3721 23.0821 13.5525 23.0988 13.6741 22.9978Z" fill="#2E3749"/>
<path d="M15.5828 11.5788C15.5828 11.3964 15.4349 11.2485 15.2525 11.2485H11.7301C11.5477 11.2485 11.3999 11.3964 11.3999 11.5788C11.3999 11.7611 11.5477 11.909 11.7301 11.909H15.2525C15.4349 11.909 15.5828 11.7611 15.5828 11.5788Z" fill="#2E3749"/>
<path d="M15.5828 10.258C15.5828 10.0756 15.4349 9.92773 15.2525 9.92773H11.7301C11.5477 9.92773 11.3999 10.0756 11.3999 10.258C11.3999 10.4403 11.5477 10.5882 11.7301 10.5882H15.2525C15.4349 10.5882 15.5828 10.4403 15.5828 10.258Z" fill="#2E3749"/>
<path d="M15.5828 8.93693C15.5828 8.75455 15.4349 8.60669 15.2525 8.60669H11.7301C11.5477 8.60669 11.3999 8.75455 11.3999 8.93693C11.3999 9.1193 11.5477 9.26717 11.7301 9.26717H15.2525C15.4349 9.26712 15.5828 9.1193 15.5828 8.93693Z" fill="#2E3749"/>
</svg>
