<svg width="26" height="26" viewBox="0 0 26 26" fill="none" xmlns="http://www.w3.org/2000/svg">
<circle cx="13" cy="13" r="13" fill="#E8F3FF"/>
<g clip-path="url(#clip0_222_7214)">
<path d="M16.8934 7.86528H16.8924H15.6353V7.35819C15.6353 7.21663 15.5555 7.11621 15.4551 7.05594C15.3576 6.99742 15.2359 6.9725 15.1247 6.9725H14.1407C13.8596 6.25701 13.2101 5.90177 12.4839 5.90116C11.7584 5.87467 11.0967 6.30489 10.8242 6.9725H9.85722C9.7459 6.9725 9.6275 6.99748 9.53346 7.05732C9.43574 7.11951 9.36438 7.22048 9.36438 7.35819V7.86528H8.10732V7.86527L8.10625 7.86528C7.24908 7.87443 6.54782 8.55062 6.50753 9.40688L6.50742 9.40688V9.41158V19.6429C6.50742 20.4963 7.27985 21.1 8.10732 21.1H16.8924C17.7198 21.1 18.4923 20.4963 18.4923 19.6429V9.41162H18.4924L18.4921 9.40692C18.4519 8.55062 17.7506 7.87443 16.8934 7.86528ZM14.7211 7.88674V9.1152H10.2786V7.88674H11.1607V7.88748L11.1728 7.886C11.3869 7.85987 11.5591 7.69752 11.5979 7.48546C11.694 7.07152 12.0571 6.77434 12.4818 6.76188C12.9021 6.7759 13.2592 7.07383 13.3481 7.48493C13.3889 7.70481 13.5727 7.86973 13.7959 7.88646L13.7958 7.88674H13.8033H14.7211ZM8.10825 8.77954H9.36435V9.59019H9.36391L9.36479 9.59958C9.3886 9.85209 9.60659 10.0412 9.85964 10.0295H15.122C15.3772 10.0419 15.5999 9.8572 15.6344 9.60366L15.6353 9.60379V9.59019V8.77951H16.8914C17.2489 8.78651 17.5441 9.06055 17.578 9.41617V19.643V19.6487C17.5761 19.8058 17.4977 19.9368 17.3721 20.032C17.2437 20.1293 17.0689 20.1858 16.8924 20.1858H8.10732C7.93078 20.1858 7.75602 20.1293 7.62756 20.032C7.50044 19.9357 7.42165 19.8025 7.42165 19.643V9.41621C7.4555 9.06057 7.75071 8.78651 8.10825 8.77954Z" fill="#007AFF" stroke="#007AFF" stroke-width="0.2"/>
<path d="M11.2196 13.936C11.2117 13.9273 11.2035 13.9191 11.1952 13.9113C11.0235 13.733 10.7407 13.7237 10.5576 13.891L10.5576 13.891L10.5561 13.8924L9.48527 14.913L9.07245 14.4849C8.90097 14.3045 8.61657 14.2944 8.43277 14.4624L8.43261 14.4622L8.42788 14.4672C8.25268 14.6507 8.25268 14.9395 8.42788 15.1231L8.42788 15.1231L8.42866 15.1239L9.15929 15.8723C9.24211 15.964 9.36101 16.0148 9.48457 16.0111C9.60418 16.0092 9.71825 15.9604 9.80231 15.8753L11.1932 14.5557C11.3713 14.3918 11.3831 14.1146 11.2196 13.936ZM11.2196 13.936C11.2197 13.9362 11.2198 13.9363 11.2199 13.9364L11.1456 14.0033L11.2193 13.9357C11.2194 13.9358 11.2195 13.9359 11.2196 13.936Z" fill="#007AFF" stroke="#007AFF" stroke-width="0.2"/>
<path d="M16.2496 14.6505H12.1428C11.8903 14.6505 11.6856 14.8551 11.6856 15.1076C11.6856 15.3601 11.8903 15.5647 12.1428 15.5647H16.2496C16.502 15.5647 16.7067 15.3601 16.7067 15.1076C16.7067 14.8551 16.502 14.6505 16.2496 14.6505Z" fill="#007AFF" stroke="#007AFF" stroke-width="0.2"/>
<path d="M10.5576 11.0341L10.5576 11.0341C10.7407 10.8668 11.0235 10.8761 11.1952 11.0544C11.2035 11.0621 11.2117 11.0704 11.2196 11.0791M10.5576 11.0341L11.1456 11.1464M10.5576 11.0341L10.5561 11.0355L9.48527 12.0561M10.5576 11.0341L9.07245 11.628M11.2196 11.0791C11.2197 11.0792 11.2198 11.0793 11.2199 11.0795L11.1456 11.1464M11.2196 11.0791C11.2195 11.079 11.2194 11.0789 11.2193 11.0788L11.1456 11.1464M11.2196 11.0791C11.3831 11.2576 11.3713 11.5348 11.1932 11.6988M11.1456 11.1464C11.2723 11.2844 11.2631 11.4991 11.125 11.6257M11.1932 11.6988L11.1938 11.6983L11.125 11.6257M11.1932 11.6988L9.80231 13.0184M11.1932 11.6988C11.193 11.699 11.1928 11.6992 11.1926 11.6994L11.125 11.6257M11.125 11.6257L9.80231 13.0184M9.80231 13.0184C9.80276 13.0179 9.80321 13.0175 9.80367 13.017L9.73224 12.947L9.80106 13.0196L9.80231 13.0184ZM9.80231 13.0184C9.71825 13.1035 9.60418 13.1522 9.48457 13.1542M9.80231 13.0184L9.48226 13.0542M9.48457 13.1542C9.48487 13.1541 9.48516 13.1541 9.48546 13.1541L9.48226 13.0542M9.48457 13.1542C9.48427 13.1542 9.48398 13.1542 9.48368 13.1542L9.48226 13.0542M9.48457 13.1542C9.36101 13.1578 9.24211 13.1071 9.15929 13.0154M9.48226 13.0542C9.38718 13.0572 9.29566 13.018 9.23229 12.947M9.15929 13.0154L9.16073 13.0169L9.23229 12.947M9.15929 13.0154L8.42866 12.2669L8.42788 12.2661L8.42788 12.2661C8.25269 12.0826 8.25269 11.7938 8.42788 11.6102L8.4326 11.6053L8.43276 11.6055C8.61657 11.4375 8.90097 11.4476 9.07245 11.628M9.15929 13.0154C9.15876 13.0148 9.15823 13.0142 9.15771 13.0136L9.23229 12.947M9.23229 12.947L9.07245 11.628M9.07245 11.628L9.07218 11.6277L9.0002 11.6971L9.07274 11.6283C9.07264 11.6282 9.07255 11.6281 9.07245 11.628ZM9.07245 11.628L9.48527 12.0561M9.48527 12.0561L9.41331 12.1247L9.4823 12.1971L9.55428 12.1277L9.48527 12.0561Z" fill="#007AFF" stroke="#007AFF" stroke-width="0.2"/>
<path d="M16.2496 11.7936H12.1428C11.8903 11.7936 11.6856 11.9982 11.6856 12.2507C11.6856 12.5031 11.8903 12.7078 12.1428 12.7078H16.2496C16.502 12.7078 16.7067 12.5031 16.7067 12.2507C16.7067 11.9982 16.502 11.7936 16.2496 11.7936Z" fill="#007AFF" stroke="#007AFF" stroke-width="0.2"/>
<path d="M10.5576 16.7479L10.5576 16.7479C10.7407 16.5807 11.0235 16.59 11.1952 16.7683C11.2035 16.776 11.2116 16.7842 11.2195 16.7929M10.5576 16.7479L11.1456 16.8602M10.5576 16.7479L10.5561 16.7494L9.48527 17.77M10.5576 16.7479L9.48527 17.77M11.2195 16.7929C11.2196 16.793 11.2197 16.7931 11.2197 16.7931L11.1456 16.8602M11.2195 16.7929C11.2194 16.7928 11.2193 16.7927 11.2193 16.7926L11.1456 16.8602M11.2195 16.7929C11.3831 16.9714 11.3713 17.2487 11.1932 17.4127M11.1456 16.8602C11.2723 16.9983 11.2631 17.2129 11.125 17.3396M11.1932 17.4127L11.1938 17.4121L11.125 17.3396M11.1932 17.4127L9.80231 18.7323M11.1932 17.4127C11.193 17.4129 11.1928 17.4131 11.1926 17.4133L11.125 17.3396M11.125 17.3396L9.80231 18.7323M9.80231 18.7323C9.80276 18.7318 9.80322 18.7313 9.80367 18.7309L9.73224 18.6609L9.80106 18.7334L9.80231 18.7323ZM9.80231 18.7323C9.71825 18.8173 9.60418 18.8661 9.48457 18.868M9.80231 18.7323L9.48226 18.768M9.48457 18.868C9.48487 18.868 9.48516 18.868 9.48546 18.868L9.48226 18.768M9.48457 18.868C9.48427 18.868 9.48398 18.868 9.48368 18.868L9.48226 18.768M9.48457 18.868C9.36101 18.8717 9.2421 18.821 9.15929 18.7293M9.48226 18.768C9.38718 18.7711 9.29566 18.7318 9.23229 18.6609M9.15929 18.7293L9.16073 18.7307L9.23229 18.6609M9.15929 18.7293L8.42866 17.9808L8.42788 17.98L8.42788 17.98C8.25269 17.7964 8.25269 17.5076 8.42788 17.3241L8.43261 17.3191L8.43277 17.3193C8.61657 17.1514 8.90096 17.1614 9.07245 17.3418M9.15929 18.7293C9.15876 18.7287 9.15823 18.7281 9.15771 18.7275L9.23229 18.6609M9.23229 18.6609L8.50022 17.9109C8.36191 17.766 8.36191 17.538 8.50022 17.3931L9.07245 17.3418M9.07245 17.3418L9.07218 17.3416L9.0002 17.411L9.07274 17.3421C9.07264 17.342 9.07254 17.3419 9.07245 17.3418ZM9.07245 17.3418L9.48527 17.77M9.07245 17.3418L9.48527 17.77" fill="#007AFF" stroke="#007AFF" stroke-width="0.2"/>
<path d="M16.2496 17.5074H12.1428C11.8903 17.5074 11.6856 17.7121 11.6856 17.9645C11.6856 18.217 11.8903 18.4217 12.1428 18.4217H16.2496C16.502 18.4217 16.7067 18.217 16.7067 17.9645C16.7067 17.7121 16.502 17.5074 16.2496 17.5074Z" fill="#007AFF" stroke="#007AFF" stroke-width="0.2"/>
</g>
<defs>
<clipPath id="clip0_222_7214">
<rect width="15" height="15" fill="white" transform="translate(5 6)"/>
</clipPath>
</defs>
</svg>
