<svg width="21" height="17" viewBox="0 0 21 17" fill="none" xmlns="http://www.w3.org/2000/svg">
<path d="M8.14927 15.752C7.46908 15.752 6.80996 15.5161 6.2842 15.0845C5.75845 14.653 5.39858 14.0525 5.26593 13.3854C5.13328 12.7183 5.23604 12.0258 5.55672 11.4259C5.87739 10.8261 6.39613 10.356 7.02456 10.0957C7.65298 9.83548 8.3522 9.80117 9.00308 9.99866C9.65396 10.1961 10.2162 10.6132 10.5941 11.1788C10.9719 11.7443 11.142 12.4234 11.0753 13.1003C11.0086 13.7772 10.7093 14.4101 10.2283 14.891C9.95524 15.164 9.63112 15.3806 9.2744 15.5283C8.91768 15.676 8.53536 15.752 8.14927 15.752V15.752Z" stroke="white" stroke-width="1.5" stroke-miterlimit="10" stroke-linecap="round" stroke-linejoin="round"/>
<path d="M1.68213 12.812H2.85813" stroke="white" stroke-width="1.5" stroke-miterlimit="10" stroke-linecap="round" stroke-linejoin="round"/>
<path d="M13.4409 12.812H19.3209" stroke="white" stroke-width="1.5" stroke-miterlimit="10" stroke-linecap="round" stroke-linejoin="round"/>
<path d="M12.8523 7.12899C13.5325 7.12894 14.1916 6.89305 14.7174 6.46151C15.2431 6.02998 15.603 5.42949 15.7357 4.76237C15.8683 4.09525 15.7655 3.40277 15.4449 2.80292C15.1242 2.20307 14.6055 1.73297 13.977 1.47272C13.3486 1.21246 12.6494 1.17815 11.9985 1.37564C11.3476 1.57312 10.7854 1.99018 10.4075 2.55575C10.0296 3.12133 9.85958 3.80042 9.92629 4.47732C9.99299 5.15422 10.2923 5.78706 10.7733 6.26799C11.0464 6.54099 11.3705 6.75754 11.7272 6.90527C12.0839 7.053 12.4662 7.12902 12.8523 7.12899V7.12899Z" stroke="white" stroke-width="1.5" stroke-miterlimit="10" stroke-linecap="round" stroke-linejoin="round"/>
<path d="M19.3196 4.189H18.1436" stroke="white" stroke-width="1.5" stroke-miterlimit="10" stroke-linecap="round" stroke-linejoin="round"/>
<path d="M7.56018 4.189L1.68018 4.189" stroke="white" stroke-width="1.5" stroke-miterlimit="10" stroke-linecap="round" stroke-linejoin="round"/>
</svg>
