<svg width="26" height="26" viewBox="0 0 26 26" fill="none" xmlns="http://www.w3.org/2000/svg">
<circle cx="13" cy="13" r="13" fill="#E8F3FF"/>
<path d="M12.0256 16.1902C13.9491 16.1902 15.5083 14.6308 15.5083 12.7075C15.5083 10.784 13.9491 9.22485 12.0256 9.22485C10.1021 9.22485 8.54297 10.784 8.54297 12.7075C8.54509 14.63 10.1032 16.1878 12.0256 16.1902ZM12.0256 10.2199C13.3994 10.2199 14.5133 11.3337 14.5133 12.7075C14.5133 14.0813 13.3994 15.1952 12.0256 15.1952C10.6518 15.1952 9.53799 14.0813 9.53799 12.7075C9.53969 11.3343 10.6525 10.2216 12.0256 10.2199V10.2199Z" fill="#007AFF"/>
<path d="M13.5185 12.7075C13.5185 13.5318 12.8502 14.2001 12.0258 14.2001C11.2015 14.2001 10.5332 13.5318 10.5332 12.7075C10.5332 11.8831 11.2015 11.2148 12.0258 11.2148C12.8502 11.2148 13.5185 11.8831 13.5185 12.7075Z" fill="#007AFF"/>
<path d="M4.06543 11.2149V14.2002C4.06628 14.4746 4.28841 14.6967 4.56283 14.6976H6.39875C6.64065 15.3903 7.01009 16.0316 7.48836 16.5881L6.57285 18.1753C6.50589 18.2893 6.48697 18.4253 6.52055 18.5533C6.55435 18.6812 6.63747 18.7905 6.75204 18.8568L9.33916 20.3494C9.45331 20.4149 9.58872 20.4321 9.71562 20.3977C9.84252 20.363 9.9505 20.2795 10.0158 20.1654L10.9313 18.5784C11.6548 18.711 12.3967 18.711 13.1203 18.5784L14.0358 20.1654C14.101 20.2795 14.209 20.363 14.3359 20.3977C14.4628 20.4321 14.5982 20.4149 14.7124 20.3494L17.2995 18.8568C17.4141 18.7905 17.4972 18.6812 17.531 18.5533C17.5646 18.4253 17.5457 18.2893 17.4787 18.1753L16.5632 16.5881C17.0415 16.0316 17.4109 15.3903 17.6528 14.6976H19.4887C19.7631 14.6967 19.9853 14.4746 19.9861 14.2002V11.2149C19.9853 10.9405 19.7631 10.7181 19.4887 10.7175H17.6528C17.4109 10.0245 17.0415 9.38343 16.5632 8.82672L17.4787 7.23971C17.5457 7.12578 17.5646 6.98952 17.531 6.86156C17.4972 6.7336 17.4141 6.62434 17.2995 6.55802L14.7124 5.0656C14.5982 5.00013 14.4628 4.98291 14.3359 5.01735C14.209 5.05178 14.101 5.13553 14.0358 5.24968L13.1203 6.83669C12.3967 6.70405 11.6548 6.70405 10.9313 6.83669L10.0158 5.24968C9.9505 5.13553 9.84252 5.05178 9.71562 5.01735C9.58872 4.98291 9.45331 5.00013 9.33916 5.0656L6.75204 6.55802C6.63747 6.62434 6.55435 6.7336 6.52055 6.86156C6.48697 6.98952 6.50589 7.12578 6.57285 7.23971L7.48836 8.82672C7.01009 9.38343 6.64065 10.0245 6.39875 10.7175H4.56283C4.28841 10.7181 4.06628 10.9405 4.06543 11.2149V11.2149ZM12.0258 8.22984C14.4988 8.22984 16.5035 10.2345 16.5035 12.7075C16.5035 15.1805 14.4988 17.1852 12.0258 17.1852C9.55279 17.1852 7.54809 15.1805 7.54809 12.7075C7.55086 10.2356 9.55386 8.2326 12.0258 8.22984Z" fill="#007AFF"/>
</svg>
