<svg width="26" height="26" viewBox="0 0 26 26" fill="none" xmlns="http://www.w3.org/2000/svg">
<circle cx="13" cy="13" r="13" fill="#E8F3FF"/>
<path d="M18.0005 17.501H8.00404C7.45196 17.501 7.00439 17.0534 7.00439 16.5013C7.00439 15.9492 7.45196 15.5017 8.00404 15.5017H18.0005C18.5526 15.5017 19.0002 15.9492 19.0002 16.5013C19.0002 17.0534 18.5526 17.501 18.0005 17.501Z" fill="#007AFF"/>
<path d="M6.0049 16.5011C6.00377 16.7658 5.89772 17.0193 5.71 17.2059C5.32011 17.5935 4.69039 17.5935 4.3005 17.2059C4.11275 17.0193 4.00669 16.7658 4.0056 16.5011C3.99813 16.4364 3.99813 16.371 4.0056 16.3062C4.01691 16.2411 4.03534 16.1774 4.06058 16.1163C4.08741 16.0571 4.11918 16.0002 4.15555 15.9463C4.19144 15.8903 4.23333 15.8383 4.2805 15.7914C4.32599 15.7461 4.37625 15.7059 4.43045 15.6714C4.48309 15.6331 4.54016 15.6012 4.60039 15.5765C4.66665 15.5421 4.73728 15.5169 4.81032 15.5015C4.87508 15.4942 4.94049 15.4942 5.00525 15.5015C5.26922 15.5013 5.52257 15.6055 5.71 15.7914C5.75717 15.8383 5.79906 15.8903 5.83496 15.9463C5.87132 16.0002 5.90309 16.0571 5.92992 16.1163C5.96182 16.1766 5.98697 16.2403 6.0049 16.3062C6.01236 16.371 6.01236 16.4364 6.0049 16.5011Z" fill="#007AFF"/>
<path d="M6.00467 12.0029C6.0121 12.0676 6.0121 12.133 6.00467 12.1978C5.98739 12.2623 5.96221 12.3244 5.92969 12.3827C5.90395 12.444 5.87212 12.5026 5.83473 12.5577C5.80008 12.6131 5.75804 12.6635 5.70977 12.7076C5.31988 13.0952 4.69016 13.0952 4.30027 12.7076C4.11252 12.521 4.00646 12.2675 4.00537 12.0029C4.00731 11.8711 4.03271 11.7408 4.08034 11.618C4.1054 11.5589 4.13551 11.502 4.17031 11.448C4.20833 11.3937 4.25188 11.3435 4.30027 11.2981C4.34444 11.2499 4.39486 11.2079 4.45021 11.1731C4.50285 11.1348 4.55989 11.1029 4.62015 11.0782C4.6811 11.0525 4.74486 11.0341 4.81009 11.0232C4.87403 11.0089 4.93948 11.0021 5.00502 11.0032C5.06978 10.9957 5.13519 10.9957 5.19995 11.0032C5.26355 11.0141 5.32566 11.0326 5.38489 11.0582C5.44677 11.0827 5.5055 11.1146 5.55982 11.1532C5.61518 11.1879 5.6656 11.2299 5.70977 11.2781C5.75794 11.3223 5.79999 11.3727 5.83473 11.4281C5.87315 11.4807 5.90505 11.5377 5.92969 11.598C5.96384 11.6643 5.98905 11.7349 6.00467 11.8079C6.01235 11.8727 6.01235 11.9381 6.00467 12.0029Z" fill="#007AFF"/>
<path d="M6.00473 7.50432C6.01213 7.56908 6.01213 7.63449 6.00473 7.69925C5.98745 7.76535 5.96228 7.82911 5.92976 7.88918C5.90292 7.94838 5.87115 8.00523 5.83479 8.05912C5.80005 8.11448 5.758 8.1649 5.70983 8.20907C5.31994 8.59665 4.69022 8.59665 4.30033 8.20907C4.25216 8.1649 4.21011 8.11448 4.17537 8.05912C4.13901 8.00523 4.10724 7.94838 4.08041 7.88918C4.05448 7.82833 4.03602 7.76454 4.02543 7.69925C4.01134 7.63524 4.00465 7.56986 4.00543 7.50432C4.00656 7.23963 4.11261 6.98619 4.30033 6.79957C4.3445 6.75139 4.39492 6.70935 4.45028 6.67461C4.50291 6.63625 4.55996 6.60435 4.62022 6.57964C4.68116 6.554 4.74492 6.53553 4.81015 6.52466C4.8741 6.51032 4.93954 6.50361 5.00508 6.50467C5.06984 6.4972 5.13525 6.4972 5.20001 6.50467C5.26361 6.51557 5.32572 6.53403 5.38495 6.55965C5.44683 6.5842 5.50556 6.6161 5.55989 6.65462C5.61524 6.68935 5.66566 6.7314 5.70983 6.77957C5.758 6.82374 5.80005 6.87416 5.83479 6.92952C5.87324 6.98209 5.90514 7.03917 5.92976 7.09946C5.96387 7.16584 5.98908 7.23641 6.00473 7.30939C6.01241 7.37414 6.01241 7.43956 6.00473 7.50432Z" fill="#007AFF"/>
<path d="M19.0002 13.0024H8.00404C7.45196 13.0024 7.00439 12.5549 7.00439 12.0028C7.00439 11.4507 7.45196 11.0031 8.00404 11.0031H19.0002C19.5523 11.0031 19.9998 11.4507 19.9998 12.0028C19.9998 12.5549 19.5523 13.0024 19.0002 13.0024Z" fill="#007AFF"/>
<path d="M14.5018 8.50415H8.00404C7.45196 8.50415 7.00439 8.05659 7.00439 7.5045C7.00439 6.95241 7.45196 6.50485 8.00404 6.50485H14.5018C15.0538 6.50485 15.5014 6.95241 15.5014 7.5045C15.5014 8.05659 15.0538 8.50415 14.5018 8.50415Z" fill="#007AFF"/>
</svg>
