<svg width="9" height="10" viewBox="0 0 9 10" fill="none" xmlns="http://www.w3.org/2000/svg">
<path d="M1.062 7.44327H1.10781L3.31792 6.96232C3.36097 6.95515 3.40086 6.9352 3.43242 6.90507L7.17698 3.16048C7.45053 2.88753 7.60315 2.51628 7.60069 2.12988C7.60119 1.74047 7.44908 1.36639 7.17698 1.0878C6.90405 0.81426 6.5328 0.661641 6.14638 0.664118C5.7575 0.660677 5.38449 0.818161 5.11577 1.09927L1.38263 4.84383C1.3497 4.87033 1.3257 4.90629 1.31391 4.94689L0.832975 7.157C0.819846 7.23634 0.845359 7.31718 0.901689 7.37458C0.94397 7.41772 1.00159 7.44242 1.062 7.44327ZM6.14638 1.12217C6.6966 1.12213 7.14266 1.56815 7.1427 2.11837C7.1427 2.1222 7.14268 2.12604 7.14264 2.12988C7.14639 2.392 7.04297 2.6443 6.85636 2.8284L5.44785 1.40843C5.63342 1.22403 5.88476 1.12101 6.14638 1.12217ZM5.12721 1.74054L6.53571 3.14904L3.27209 6.4012L1.86358 5.00414L5.12721 1.74054ZM1.68037 5.46221L2.81404 6.59588L1.35972 6.91653L1.68037 5.46221Z" fill="#2F2E41"/>
<path d="M8.33403 8.68005H0.661644C0.535152 8.68005 0.432617 8.78259 0.432617 8.90908C0.432617 9.03557 0.535152 9.1381 0.661644 9.1381H8.33403C8.46052 9.1381 8.56305 9.03557 8.56305 8.90908C8.56305 8.78259 8.46052 8.68005 8.33403 8.68005Z" fill="#2F2E41"/>
</svg>
