<svg width="16" height="16" viewBox="0 0 16 16" fill="none" xmlns="http://www.w3.org/2000/svg">
<path d="M8.02563 11.1902C9.94913 11.1902 11.5083 9.63081 11.5083 7.70752C11.5083 5.78402 9.94913 4.22485 8.02563 4.22485C6.10213 4.22485 4.54297 5.78402 4.54297 7.70752C4.54509 9.62995 6.1032 11.1878 8.02563 11.1902ZM8.02563 5.21987C9.39944 5.21987 10.5133 6.33371 10.5133 7.70752C10.5133 9.08132 9.39944 10.1952 8.02563 10.1952C6.65183 10.1952 5.53799 9.08132 5.53799 7.70752C5.53969 6.33435 6.65246 5.22157 8.02563 5.21987Z" fill="#007AFF"/>
<path d="M9.51847 7.70747C9.51847 8.5318 8.85016 9.2001 8.02584 9.2001C7.20151 9.2001 6.5332 8.5318 6.5332 7.70747C6.5332 6.88315 7.20151 6.21484 8.02584 6.21484C8.85016 6.21484 9.51847 6.88315 9.51847 7.70747Z" fill="#007AFF"/>
<path d="M0.0654297 6.21489V9.20015C0.0662799 9.47457 0.28841 9.6967 0.562832 9.69755H2.39875C2.64065 10.3903 3.01009 11.0316 3.48836 11.5881L2.57285 13.1753C2.50589 13.2893 2.48697 13.4253 2.52055 13.5533C2.55435 13.6812 2.63747 13.7905 2.75204 13.8568L5.33916 15.3494C5.45331 15.4149 5.58872 15.4321 5.71562 15.3977C5.84252 15.363 5.9505 15.2795 6.01576 15.1654L6.93128 13.5784C7.65485 13.711 8.3967 13.711 9.12027 13.5784L10.0358 15.1654C10.101 15.2795 10.209 15.363 10.3359 15.3977C10.4628 15.4321 10.5982 15.4149 10.7124 15.3494L13.2995 13.8568C13.4141 13.7905 13.4972 13.6812 13.531 13.5533C13.5646 13.4253 13.5457 13.2893 13.4787 13.1753L12.5632 11.5881C13.0415 11.0316 13.4109 10.3903 13.6528 9.69755H15.4887C15.7631 9.6967 15.9853 9.47457 15.9861 9.20015V6.21489C15.9853 5.94047 15.7631 5.71812 15.4887 5.71749H13.6528C13.4109 5.02453 13.0415 4.38343 12.5632 3.82672L13.4787 2.23971C13.5457 2.12578 13.5646 1.98952 13.531 1.86156C13.4972 1.7336 13.4141 1.62434 13.2995 1.55802L10.7124 0.0655981C10.5982 0.000128085 10.4628 -0.0170897 10.3359 0.0173458C10.209 0.0517814 10.101 0.135532 10.0358 0.249679L9.12027 1.83669C8.3967 1.70405 7.65485 1.70405 6.93128 1.83669L6.01576 0.249679C5.9505 0.135532 5.84252 0.0517814 5.71562 0.0173458C5.58872 -0.0170897 5.45331 0.000128085 5.33916 0.0655981L2.75204 1.55802C2.63747 1.62434 2.55435 1.7336 2.52055 1.86156C2.48697 1.98952 2.50589 2.12578 2.57285 2.23971L3.48836 3.82672C3.01009 4.38343 2.64065 5.02453 2.39875 5.71749H0.562832C0.28841 5.71812 0.0662799 5.94047 0.0654297 6.21489ZM8.02577 3.22984C10.4988 3.22984 12.5035 5.23454 12.5035 7.70752C12.5035 10.1805 10.4988 12.1852 8.02577 12.1852C5.55279 12.1852 3.54809 10.1805 3.54809 7.70752C3.55086 5.2356 5.55386 3.2326 8.02577 3.22984Z" fill="#007AFF"/>
</svg>
