<svg width="23" height="23" viewBox="0 0 23 23" fill="none" xmlns="http://www.w3.org/2000/svg">
<circle cx="11.5" cy="11.5" r="11.5" fill="#E2F0FF"/>
<path d="M8.26634 8.25973L8.64447 14.4601C8.68626 15.1379 9.25654 15.6666 9.94749 15.6666H13.8612C14.537 15.6666 15.1011 15.1602 15.1623 14.4987L15.733 8.25973M8.26634 8.25973C7.70468 8.2982 7.33301 8.32838 7.33301 8.32838M8.26634 8.25973C9.25283 8.19217 10.8254 8.09906 11.9997 8.09906C13.1739 8.09906 14.7465 8.19217 15.733 8.25973M15.733 8.25973C16.2947 8.2982 16.6663 8.32838 16.6663 8.32838" stroke="#FF0000" stroke-width="0.6" stroke-linecap="round"/>
<path d="M10.5996 7.84683V7.33331C10.5996 6.78103 11.0473 6.33331 11.5996 6.33331H12.3996C12.9519 6.33331 13.3996 6.78103 13.3996 7.33331V7.84683" stroke="#FF0000" stroke-width="0.6" stroke-linecap="round"/>
<path d="M10.1328 7.84686L11.0661 7.84686" stroke="#FF0000" stroke-width="0.6" stroke-linecap="round"/>
<path d="M12.9326 7.84686H13.866" stroke="#FF0000" stroke-width="0.6" stroke-linecap="round"/>
<path d="M12 10.3694V13.3964" stroke="#FF0000" stroke-width="0.6" stroke-linecap="round"/>
<path d="M10.1328 10.8738L10.1328 12.8919" stroke="#FF0000" stroke-width="0.6" stroke-linecap="round"/>
<path d="M13.8662 10.8738L13.8662 12.8919" stroke="#FF0000" stroke-width="0.6" stroke-linecap="round"/>
</svg>
