<svg width="13" height="15" viewBox="0 0 13 15" fill="none" xmlns="http://www.w3.org/2000/svg">
<path d="M10.8934 1.86528H10.8924H9.63532V1.35819C9.63532 1.21663 9.55554 1.11621 9.45509 1.05594C9.35756 0.997421 9.23585 0.972504 9.12465 0.972504H8.14071C7.85963 0.257009 7.21011 -0.0982334 6.48389 -0.0988431C5.75842 -0.12533 5.09673 0.304889 4.82419 0.972504H3.85722C3.7459 0.972504 3.6275 0.99748 3.53346 1.05732C3.43574 1.11951 3.36438 1.22048 3.36438 1.35819V1.86528H2.10732V1.86527L2.10625 1.86528C1.24908 1.87443 0.547823 2.55062 0.507532 3.40688L0.507422 3.40688V3.41158V13.6429C0.507422 14.4963 1.27985 15.1 2.10732 15.1H10.8924C11.7198 15.1 12.4923 14.4963 12.4923 13.6429V3.41162H12.4924L12.4921 3.40692C12.4519 2.55062 11.7506 1.87443 10.8934 1.86528ZM8.72112 1.88674V3.1152H4.27858V1.88674H5.16066V1.88748L5.17277 1.886C5.38693 1.85987 5.55913 1.69752 5.59792 1.48547C5.69403 1.07152 6.05708 0.774338 6.48181 0.761877C6.90208 0.775898 7.25916 1.07383 7.34814 1.48493C7.38895 1.70481 7.57273 1.86973 7.79586 1.88646L7.79584 1.88674H7.80333H8.72112ZM2.10827 2.77954H3.36435V3.59019H3.36391L3.36479 3.59958C3.3886 3.85209 3.60659 4.04121 3.85964 4.02947H9.12204C9.37723 4.04195 9.5999 3.8572 9.63438 3.60366L9.63529 3.60379V3.59019V2.77951H10.8914C11.2489 2.7865 11.5441 3.06054 11.578 3.41617V13.643V13.6487C11.5761 13.8058 11.4977 13.9368 11.3721 14.032C11.2437 14.1293 11.0689 14.1858 10.8924 14.1858H2.10732C1.93078 14.1858 1.75602 14.1293 1.62756 14.032C1.50044 13.9357 1.42165 13.8025 1.42165 13.643V3.41621C1.4555 3.06057 1.75072 2.7865 2.10827 2.77954Z" fill="#007AFF" stroke="#007AFF" stroke-width="0.2"/>
<path d="M5.21959 7.93605C5.21169 7.92729 5.20351 7.91906 5.19516 7.91129C5.02347 7.73304 4.74067 7.72373 4.55762 7.89101L4.5576 7.891L4.55608 7.89244L3.48527 8.91304L3.07245 8.48491C2.90096 8.30448 2.61657 8.29445 2.43277 8.46238L2.43261 8.4622L2.42788 8.46716C2.25268 8.65071 2.25268 8.93951 2.42788 9.12306L2.42788 9.12307L2.42866 9.12387L3.15929 9.87234C3.24211 9.96403 3.36101 10.0148 3.48457 10.0111C3.60418 10.0092 3.71825 9.9604 3.80231 9.87533L5.19324 8.55574C5.37128 8.39177 5.3831 8.11458 5.21959 7.93605ZM5.21959 7.93605C5.21969 7.93616 5.2198 7.93628 5.21991 7.9364L5.14559 8.00332L5.21927 7.9357C5.21937 7.93581 5.21948 7.93593 5.21959 7.93605Z" fill="#007AFF" stroke="#007AFF" stroke-width="0.2"/>
<path d="M10.2496 8.65049H6.14276C5.8903 8.65049 5.68564 8.85514 5.68564 9.1076C5.68564 9.36007 5.8903 9.56472 6.14276 9.56472H10.2496C10.502 9.56472 10.7067 9.36007 10.7067 9.1076C10.7067 8.85514 10.502 8.65049 10.2496 8.65049Z" fill="#007AFF" stroke="#007AFF" stroke-width="0.2"/>
<path d="M5.21959 5.07911C5.21169 5.07036 5.20351 5.06212 5.19516 5.05436C5.02347 4.8761 4.74067 4.86679 4.55762 5.03408L4.5576 5.03406L4.55608 5.03551L3.48527 6.05611L3.07245 5.62798C2.90098 5.44756 2.61658 5.43747 2.43276 5.60545L2.4326 5.60528L2.42788 5.61023C2.25269 5.79378 2.25269 6.08258 2.42788 6.26613L2.42788 6.26614L2.42866 6.26694L3.15929 7.01541C3.24211 7.1071 3.36101 7.15785 3.48457 7.15416C3.60418 7.15223 3.71825 7.10347 3.80231 7.0184L5.19325 5.6988C5.37128 5.53483 5.38309 5.25764 5.21959 5.07911ZM5.21959 5.07911C5.21969 5.07923 5.2198 5.07935 5.21991 5.07947L5.14559 5.14638L5.21927 5.07876C5.21937 5.07888 5.21948 5.079 5.21959 5.07911Z" fill="#007AFF" stroke="#007AFF" stroke-width="0.2"/>
<path d="M10.2496 5.79355H6.14276C5.8903 5.79355 5.68564 5.99821 5.68564 6.25067C5.68564 6.50313 5.8903 6.70778 6.14276 6.70778H10.2496C10.502 6.70778 10.7067 6.50313 10.7067 6.25067C10.7067 5.99821 10.502 5.79355 10.2496 5.79355Z" fill="#007AFF" stroke="#007AFF" stroke-width="0.2"/>
<path d="M4.55761 10.7479L4.55763 10.7479C4.74069 10.5807 5.02355 10.59 5.19524 10.7683C5.20352 10.776 5.21165 10.7842 5.21951 10.7929M4.55761 10.7479L5.14559 10.8602M4.55761 10.7479L4.55608 10.7494L3.48527 11.77M4.55761 10.7479L3.07245 11.3418M5.21951 10.7929C5.21959 10.793 5.21967 10.7931 5.21975 10.7931L5.14559 10.8602M5.21951 10.7929C5.21943 10.7928 5.21935 10.7927 5.21927 10.7926L5.14559 10.8602M5.21951 10.7929C5.3831 10.9714 5.37131 11.2487 5.19325 11.4127M5.14559 10.8602C5.27229 10.9983 5.26306 11.2129 5.12498 11.3396M5.19325 11.4127L5.19381 11.4121L5.12498 11.3396M5.19325 11.4127L3.80231 12.7323M5.19325 11.4127C5.19303 11.4129 5.1928 11.4131 5.19258 11.4133L5.12498 11.3396M5.12498 11.3396L3.80231 12.7323M3.80231 12.7323C3.80276 12.7318 3.80322 12.7313 3.80367 12.7309L3.73224 12.6609L3.80106 12.7334L3.80231 12.7323ZM3.80231 12.7323C3.71825 12.8173 3.60418 12.8661 3.48457 12.868M3.80231 12.7323L3.48226 12.768M3.48457 12.868C3.48487 12.868 3.48516 12.868 3.48546 12.868L3.48226 12.768M3.48457 12.868C3.48427 12.868 3.48398 12.868 3.48368 12.868L3.48226 12.768M3.48457 12.868C3.36101 12.8717 3.24211 12.821 3.15929 12.7293M3.48226 12.768C3.38718 12.7711 3.29566 12.7318 3.23229 12.6609M3.15929 12.7293L3.16073 12.7307L3.23229 12.6609M3.15929 12.7293L2.42866 11.9808L2.42788 11.98L2.42788 11.98C2.25268 11.7964 2.25269 11.5076 2.42788 11.3241L2.43261 11.3191L2.43277 11.3193C2.61657 11.1514 2.90096 11.1614 3.07245 11.3418M3.15929 12.7293C3.15876 12.7287 3.15823 12.7281 3.15771 12.7275L3.23229 12.6609M3.23229 12.6609L3.07245 11.3418M3.07245 11.3418L3.07218 11.3416L3.0002 11.411L3.07274 11.3421C3.07264 11.342 3.07254 11.3419 3.07245 11.3418ZM3.07245 11.3418L3.48527 11.77M3.48527 11.77L3.41331 11.8386L3.4823 11.9109L3.55428 11.8415L3.48527 11.77Z" fill="#007AFF" stroke="#007AFF" stroke-width="0.2"/>
<path d="M10.2496 11.5074H6.14276C5.8903 11.5074 5.68564 11.7121 5.68564 11.9645C5.68564 12.217 5.8903 12.4217 6.14276 12.4217H10.2496C10.502 12.4217 10.7067 12.217 10.7067 11.9645C10.7067 11.7121 10.502 11.5074 10.2496 11.5074Z" fill="#007AFF" stroke="#007AFF" stroke-width="0.2"/>
</svg>
