<svg width="58" height="32" viewBox="0 0 58 32" fill="none" xmlns="http://www.w3.org/2000/svg">
<rect width="58" height="32" rx="10" fill="#E8F3FF"/>
<path d="M30.8047 21H29.4854V16.3994H24.4678V21H23.1553V11.0469H24.4678V15.3262H29.4854V11.0469H30.8047V21ZM34.3115 21H33.0469V13.6035H34.3115V21ZM32.9443 11.6416C32.9443 11.4365 33.0059 11.2633 33.1289 11.1221C33.2565 10.9808 33.4434 10.9102 33.6895 10.9102C33.9355 10.9102 34.1224 10.9808 34.25 11.1221C34.3776 11.2633 34.4414 11.4365 34.4414 11.6416C34.4414 11.8467 34.3776 12.0176 34.25 12.1543C34.1224 12.291 33.9355 12.3594 33.6895 12.3594C33.4434 12.3594 33.2565 12.291 33.1289 12.1543C33.0059 12.0176 32.9443 11.8467 32.9443 11.6416ZM36.041 17.2402C36.041 16.0872 36.3076 15.1712 36.8408 14.4922C37.374 13.8086 38.0804 13.4668 38.96 13.4668C39.8623 13.4668 40.5664 13.7858 41.0723 14.4238L41.1338 13.6035H42.2891V20.8223C42.2891 21.7793 42.0042 22.5335 41.4346 23.085C40.8695 23.6364 40.1084 23.9121 39.1514 23.9121C38.6182 23.9121 38.0964 23.7982 37.5859 23.5703C37.0755 23.3424 36.6859 23.0303 36.417 22.6338L37.0732 21.875C37.6156 22.5449 38.2786 22.8799 39.0625 22.8799C39.6777 22.8799 40.1562 22.7067 40.498 22.3604C40.8444 22.014 41.0176 21.5264 41.0176 20.8975V20.2617C40.5117 20.8451 39.8213 21.1367 38.9463 21.1367C38.0804 21.1367 37.3786 20.7881 36.8408 20.0908C36.3076 19.3936 36.041 18.4434 36.041 17.2402ZM37.3125 17.3838C37.3125 18.2178 37.4834 18.874 37.8252 19.3525C38.167 19.8265 38.6455 20.0635 39.2607 20.0635C40.0583 20.0635 40.6439 19.7012 41.0176 18.9766V15.5996C40.6302 14.8932 40.0492 14.54 39.2744 14.54C38.6592 14.54 38.1784 14.7793 37.832 15.2578C37.4857 15.7363 37.3125 16.445 37.3125 17.3838ZM45.4678 14.499C46.0283 13.8109 46.7575 13.4668 47.6553 13.4668C49.2184 13.4668 50.0068 14.3486 50.0205 16.1123V21H48.7559V16.1055C48.7513 15.5723 48.6283 15.1781 48.3867 14.9229C48.1497 14.6676 47.7783 14.54 47.2725 14.54C46.8623 14.54 46.5023 14.6494 46.1924 14.8682C45.8825 15.0869 45.641 15.374 45.4678 15.7295V21H44.2031V10.5H45.4678V14.499Z" fill="#FF0000"/>
<path d="M13.3264 8.67258C13.3129 8.68384 13.3003 8.69631 13.2891 8.70988L9.10622 12.8047C8.97247 12.9287 8.96455 13.1377 9.08852 13.2714C9.15 13.3377 9.23596 13.3759 9.32639 13.3771H11.5279V18.6828C11.5279 18.8809 11.5719 19.1011 11.748 19.1011H15.2705C15.4939 19.0749 15.6732 18.9045 15.7108 18.6828V13.3771H17.6921C17.8238 13.3739 17.9427 13.2975 18.0003 13.179V13.0469C17.9967 12.9549 17.9572 12.868 17.8903 12.8047L13.7294 8.70988C13.6284 8.58827 13.4479 8.57158 13.3264 8.67258Z" fill="#FF0000"/>
<path d="M11.418 20.0918C11.418 20.2741 11.5658 20.422 11.7482 20.422H15.2706C15.453 20.422 15.6009 20.2741 15.6009 20.0918C15.6009 19.9094 15.453 19.7615 15.2706 19.7615H11.7482C11.5658 19.7616 11.418 19.9094 11.418 20.0918Z" fill="#FF0000"/>
<path d="M11.418 21.4127C11.418 21.5951 11.5658 21.7429 11.7482 21.7429H15.2706C15.453 21.7429 15.6009 21.5951 15.6009 21.4127C15.6009 21.2303 15.453 21.0824 15.2706 21.0824H11.7482C11.5658 21.0825 11.418 21.2303 11.418 21.4127Z" fill="#FF0000"/>
<path d="M11.418 22.7335C11.418 22.9159 11.5658 23.0637 11.7482 23.0637H15.2706C15.453 23.0637 15.6009 22.9159 15.6009 22.7335C15.6009 22.5511 15.453 22.4032 15.2706 22.4032H11.7482C11.5658 22.4033 11.418 22.5511 11.418 22.7335Z" fill="#FF0000"/>
</svg>
