<svg width="26" height="29" viewBox="0 0 26 29" fill="none" xmlns="http://www.w3.org/2000/svg">
<path d="M9.7774 2.42614L2.23198 10.4432C1.44064 11.284 1 12.3951 1 13.5497V22.6028C1 24.9963 2.86105 26.9773 5.24992 27.1266L13.0871 27.6164L20.9217 27.1268C23.3116 26.9774 25.1731 24.9948 25.1716 22.6002L25.1662 13.5576C25.1656 12.4039 24.725 11.2939 23.9343 10.4538L16.3788 2.42613C14.5891 0.524621 11.5671 0.524625 9.7774 2.42614Z" stroke="#FFAE00" stroke-width="1.5" stroke-linecap="round"/>
<path d="M8.55469 22.3283V18.4024C8.55469 17.8772 8.82742 17.3897 9.27498 17.1148L12.2968 15.2594C12.7817 14.9616 13.3929 14.9616 13.8779 15.2594L16.8997 17.1148C17.3473 17.3897 17.62 17.8772 17.62 18.4024V22.3283" stroke="#FFAE00" stroke-width="1.5" stroke-linecap="round"/>
</svg>
