<svg width="20" height="20" viewBox="0 0 20 20" fill="none" xmlns="http://www.w3.org/2000/svg">
<path d="M9.16675 11.0001C9.34805 11.0001 9.52528 10.9463 9.67603 10.8456C9.82677 10.7449 9.94426 10.6017 10.0136 10.4342C10.083 10.2667 10.1012 10.0824 10.0658 9.90459C10.0304 9.72677 9.94313 9.56344 9.81493 9.43524C9.68674 9.30704 9.5234 9.21973 9.34558 9.18436C9.16776 9.14899 8.98345 9.16714 8.81595 9.23653C8.64845 9.30591 8.50529 9.4234 8.40456 9.57415C8.30383 9.72489 8.25007 9.90212 8.25007 10.0834C8.25007 10.3265 8.34665 10.5597 8.51856 10.7316C8.69047 10.9035 8.92363 11.0001 9.16675 11.0001ZM13.7501 11.0001C13.9314 11.0001 14.1087 10.9463 14.2594 10.8456C14.4101 10.7449 14.5276 10.6017 14.597 10.4342C14.6664 10.2667 14.6846 10.0824 14.6492 9.90459C14.6138 9.72677 14.5265 9.56344 14.3983 9.43524C14.2701 9.30704 14.1068 9.21973 13.929 9.18436C13.7511 9.14899 13.5668 9.16714 13.3993 9.23653C13.2318 9.30591 13.0887 9.4234 12.9879 9.57415C12.8872 9.72489 12.8334 9.90212 12.8334 10.0834C12.8334 10.3265 12.93 10.5597 13.1019 10.7316C13.2738 10.9035 13.507 11.0001 13.7501 11.0001ZM9.16675 14.6668C9.34805 14.6668 9.52528 14.613 9.67603 14.5123C9.82677 14.4116 9.94426 14.2684 10.0136 14.1009C10.083 13.9334 10.1012 13.7491 10.0658 13.5713C10.0304 13.3935 9.94313 13.2301 9.81493 13.1019C9.68674 12.9737 9.5234 12.8864 9.34558 12.8511C9.16776 12.8157 8.98345 12.8338 8.81595 12.9032C8.64845 12.9726 8.50529 13.0901 8.40456 13.2408C8.30383 13.3916 8.25007 13.5688 8.25007 13.7501C8.25007 13.9932 8.34665 14.2264 8.51856 14.3983C8.69047 14.5702 8.92363 14.6668 9.16675 14.6668ZM13.7501 14.6668C13.9314 14.6668 14.1087 14.613 14.2594 14.5123C14.4101 14.4116 14.5276 14.2684 14.597 14.1009C14.6664 13.9334 14.6846 13.7491 14.6492 13.5713C14.6138 13.3935 14.5265 13.2301 14.3983 13.1019C14.2701 12.9737 14.1068 12.8864 13.929 12.8511C13.7511 12.8157 13.5668 12.8338 13.3993 12.9032C13.2318 12.9726 13.0887 13.0901 12.9879 13.2408C12.8872 13.3916 12.8334 13.5688 12.8334 13.7501C12.8334 13.9932 12.93 14.2264 13.1019 14.3983C13.2738 14.5702 13.507 14.6668 13.7501 14.6668ZM4.58337 11.0001C4.76468 11.0001 4.9419 10.9463 5.09265 10.8456C5.2434 10.7449 5.36089 10.6017 5.43027 10.4342C5.49965 10.2667 5.51781 10.0824 5.48244 9.90459C5.44706 9.72677 5.35976 9.56344 5.23156 9.43524C5.10336 9.30704 4.94003 9.21973 4.76221 9.18436C4.58439 9.14899 4.40008 9.16714 4.23258 9.23653C4.06508 9.30591 3.92191 9.4234 3.82119 9.57415C3.72046 9.72489 3.6667 9.90212 3.6667 10.0834C3.6667 10.3265 3.76328 10.5597 3.93519 10.7316C4.1071 10.9035 4.34026 11.0001 4.58337 11.0001ZM15.5835 1.83335H14.6668V0.916675C14.6668 0.673558 14.5702 0.440398 14.3983 0.268488C14.2264 0.0965779 13.9932 0 13.7501 0C13.507 0 13.2738 0.0965779 13.1019 0.268488C12.93 0.440398 12.8334 0.673558 12.8334 0.916675V1.83335H5.50005V0.916675C5.50005 0.673558 5.40347 0.440398 5.23156 0.268488C5.05965 0.0965779 4.82649 0 4.58337 0C4.34026 0 4.1071 0.0965779 3.93519 0.268488C3.76328 0.440398 3.6667 0.673558 3.6667 0.916675V1.83335H2.75002C2.02067 1.83335 1.32119 2.12308 0.805464 2.63881C0.289734 3.15454 0 3.85402 0 4.58337V15.5835C0 16.3128 0.289734 17.0123 0.805464 17.528C1.32119 18.0438 2.02067 18.3335 2.75002 18.3335H15.5835C16.3128 18.3335 17.0123 18.0438 17.528 17.528C18.0438 17.0123 18.3335 16.3128 18.3335 15.5835V4.58337C18.3335 3.85402 18.0438 3.15454 17.528 2.63881C17.0123 2.12308 16.3128 1.83335 15.5835 1.83335ZM16.5001 15.5835C16.5001 15.8266 16.4036 16.0597 16.2317 16.2317C16.0597 16.4036 15.8266 16.5001 15.5835 16.5001H2.75002C2.50691 16.5001 2.27375 16.4036 2.10184 16.2317C1.92993 16.0597 1.83335 15.8266 1.83335 15.5835V7.3334H16.5001V15.5835ZM16.5001 5.50005H1.83335V4.58337C1.83335 4.34026 1.92993 4.1071 2.10184 3.93519C2.27375 3.76328 2.50691 3.6667 2.75002 3.6667H15.5835C15.8266 3.6667 16.0597 3.76328 16.2317 3.93519C16.4036 4.1071 16.5001 4.34026 16.5001 4.58337V5.50005ZM4.58337 14.6668C4.76468 14.6668 4.9419 14.613 5.09265 14.5123C5.2434 14.4116 5.36089 14.2684 5.43027 14.1009C5.49965 13.9334 5.51781 13.7491 5.48244 13.5713C5.44706 13.3935 5.35976 13.2301 5.23156 13.1019C5.10336 12.9737 4.94003 12.8864 4.76221 12.8511C4.58439 12.8157 4.40008 12.8338 4.23258 12.9032C4.06508 12.9726 3.92191 13.0901 3.82119 13.2408C3.72046 13.3916 3.6667 13.5688 3.6667 13.7501C3.6667 13.9932 3.76328 14.2264 3.93519 14.3983C4.1071 14.5702 4.34026 14.6668 4.58337 14.6668Z" fill="#2196F3"/>
</svg>
