<svg width="86" height="86" viewBox="0 0 86 86" fill="none" xmlns="http://www.w3.org/2000/svg">
<g clip-path="url(#clip0_21_4729)">
<path d="M64.9982 35.4193C64.981 35.3996 64.9646 35.3798 64.9481 35.3595C64.5478 34.8667 64.0313 34.7696 63.7592 34.7555C63.4871 34.7412 62.9634 34.7854 62.5149 35.2345L37.7013 60.0866C36.7762 61.0129 35.2979 61.0816 34.2909 60.2455L23.8476 51.5736C23.233 51.0631 22.3454 51.0686 21.7376 51.5862C21.7298 51.5927 21.7223 51.5991 21.7142 51.6056L0 69.6393V75.0106C0 81.0703 4.92973 86 10.9894 86H75.0106C81.0703 86 86 81.0701 86 75.0106V59.7125L64.9982 35.4193Z" fill="#8A92A6"/>
<path d="M27.0721 15.6467C23.1305 15.6467 19.9238 18.8534 19.9238 22.7948C19.9238 26.7362 23.1307 29.9429 27.0721 29.9429C31.0136 29.9429 34.2202 26.7362 34.2202 22.7948C34.2202 18.8533 31.0136 15.6467 27.0721 15.6467Z" fill="black"/>
<path d="M75.0108 0H10.9894C4.93006 0 0 4.92973 0 10.9894V63.0544L18.4672 47.7173C20.9541 45.6118 24.5751 45.5932 27.0835 47.6762L35.749 54.872L58.9299 31.6553C60.2702 30.3134 62.1266 29.6 64.0186 29.6964C65.8981 29.7928 67.6574 30.6801 68.8525 32.1321L85.9998 51.9666V10.9894C86.0002 4.92973 81.0701 0 75.0108 0ZM27.0722 35.0083C20.3375 35.0083 14.8585 29.5293 14.8585 22.7947C14.8585 16.0602 20.3379 10.5812 27.0722 10.5812C33.807 10.5812 39.2858 16.0604 39.2858 22.7947C39.2858 29.5293 33.807 35.0083 27.0722 35.0083Z" fill="#FFAE00"/>
<path d="M22.8672 71.084H19.9434V79H19.2227V71.084H16.3047V70.4688H22.8672V71.084ZM27.4199 79C27.3496 78.8008 27.3047 78.5059 27.2852 78.1152C27.0391 78.4355 26.7246 78.6836 26.3418 78.8594C25.9629 79.0312 25.5605 79.1172 25.1348 79.1172C24.5254 79.1172 24.0312 78.9473 23.6523 78.6074C23.2773 78.2676 23.0898 77.8379 23.0898 77.3184C23.0898 76.7012 23.3457 76.2129 23.8574 75.8535C24.373 75.4941 25.0898 75.3145 26.0078 75.3145H27.2793V74.5938C27.2793 74.1406 27.1387 73.7852 26.8574 73.5273C26.5801 73.2656 26.1738 73.1348 25.6387 73.1348C25.1504 73.1348 24.7461 73.2598 24.4258 73.5098C24.1055 73.7598 23.9453 74.0605 23.9453 74.4121L23.2422 74.4062C23.2422 73.9023 23.4766 73.4668 23.9453 73.0996C24.4141 72.7285 24.9902 72.543 25.6738 72.543C26.3809 72.543 26.9375 72.7207 27.3438 73.0762C27.7539 73.4277 27.9648 73.9199 27.9766 74.5527V77.5527C27.9766 78.166 28.041 78.625 28.1699 78.9297V79H27.4199ZM25.2168 78.4961C25.6855 78.4961 26.1035 78.3828 26.4707 78.1562C26.8418 77.9297 27.1113 77.627 27.2793 77.248V75.8535H26.0254C25.3262 75.8613 24.7793 75.9902 24.3848 76.2402C23.9902 76.4863 23.793 76.8262 23.793 77.2598C23.793 77.6152 23.9238 77.9102 24.1855 78.1445C24.4512 78.3789 24.7949 78.4961 25.2168 78.4961ZM34.9492 75.8945C34.9492 76.8828 34.7305 77.668 34.293 78.25C33.8555 78.8281 33.2695 79.1172 32.5352 79.1172C31.668 79.1172 31.0039 78.8125 30.543 78.2031V81.4375H29.8457V72.6602H30.4961L30.5312 73.5566C30.9883 72.8809 31.6504 72.543 32.5176 72.543C33.2754 72.543 33.8691 72.8301 34.2988 73.4043C34.7324 73.9785 34.9492 74.7754 34.9492 75.7949V75.8945ZM34.2461 75.7715C34.2461 74.9629 34.0801 74.3242 33.748 73.8555C33.416 73.3867 32.9531 73.1523 32.3594 73.1523C31.9297 73.1523 31.5605 73.2559 31.252 73.4629C30.9434 73.6699 30.707 73.9707 30.543 74.3652V77.4062C30.7109 77.7695 30.9512 78.0469 31.2637 78.2383C31.5762 78.4297 31.9453 78.5254 32.3711 78.5254C32.9609 78.5254 33.4199 78.291 33.748 77.8223C34.0801 77.3496 34.2461 76.666 34.2461 75.7715ZM45.1445 71.084H42.2207V79H41.5V71.084H38.582V70.4688H45.1445V71.084ZM45.3906 75.7363C45.3906 75.127 45.5078 74.5781 45.7422 74.0898C45.9805 73.6016 46.3145 73.2227 46.7441 72.9531C47.1777 72.6797 47.668 72.543 48.2148 72.543C49.0586 72.543 49.7422 72.8398 50.2656 73.4336C50.7891 74.0234 51.0508 74.8066 51.0508 75.7832V75.9297C51.0508 76.543 50.9316 77.0957 50.6934 77.5879C50.459 78.0762 50.127 78.4531 49.6973 78.7188C49.2676 78.9844 48.7773 79.1172 48.2266 79.1172C47.3867 79.1172 46.7031 78.8223 46.1758 78.2324C45.6523 77.6387 45.3906 76.8535 45.3906 75.877V75.7363ZM46.0938 75.9297C46.0938 76.6875 46.2891 77.3105 46.6797 77.7988C47.0742 78.2832 47.5898 78.5254 48.2266 78.5254C48.8594 78.5254 49.3711 78.2832 49.7617 77.7988C50.1562 77.3105 50.3535 76.668 50.3535 75.8711V75.7363C50.3535 75.252 50.2637 74.8086 50.084 74.4062C49.9043 74.0039 49.6523 73.6934 49.3281 73.4746C49.0039 73.252 48.6328 73.1406 48.2148 73.1406C47.5898 73.1406 47.0801 73.3867 46.6855 73.8789C46.291 74.3672 46.0938 75.0078 46.0938 75.8008V75.9297ZM60.1914 76.6094H56.3184L55.4395 79H54.6836L57.9121 70.4688H58.5977L61.8262 79H61.0762L60.1914 76.6094ZM56.541 75.9941H59.9629L58.252 71.3477L56.541 75.9941ZM62.6406 75.7715C62.6406 74.7871 62.8594 74.0039 63.2969 73.4219C63.7383 72.8359 64.3359 72.543 65.0898 72.543C65.9453 72.543 66.5977 72.8809 67.0469 73.5566V70H67.7441V79H67.0879L67.0586 78.1562C66.6094 78.7969 65.9492 79.1172 65.0781 79.1172C64.3477 79.1172 63.7578 78.8242 63.3086 78.2383C62.8633 77.6484 62.6406 76.8535 62.6406 75.8535V75.7715ZM63.3496 75.8945C63.3496 76.7031 63.5117 77.3418 63.8359 77.8105C64.1602 78.2754 64.6172 78.5078 65.207 78.5078C66.0703 78.5078 66.6836 78.127 67.0469 77.3652V74.3887C66.6836 73.5645 66.0742 73.1523 65.2188 73.1523C64.6289 73.1523 64.1699 73.3848 63.8418 73.8496C63.5137 74.3105 63.3496 74.9922 63.3496 75.8945ZM69.3086 75.7715C69.3086 74.7871 69.5273 74.0039 69.9648 73.4219C70.4062 72.8359 71.0039 72.543 71.7578 72.543C72.6133 72.543 73.2656 72.8809 73.7148 73.5566V70H74.4121V79H73.7559L73.7266 78.1562C73.2773 78.7969 72.6172 79.1172 71.7461 79.1172C71.0156 79.1172 70.4258 78.8242 69.9766 78.2383C69.5312 77.6484 69.3086 76.8535 69.3086 75.8535V75.7715ZM70.0176 75.8945C70.0176 76.7031 70.1797 77.3418 70.5039 77.8105C70.8281 78.2754 71.2852 78.5078 71.875 78.5078C72.7383 78.5078 73.3516 78.127 73.7148 77.3652V74.3887C73.3516 73.5645 72.7422 73.1523 71.8867 73.1523C71.2969 73.1523 70.8379 73.3848 70.5098 73.8496C70.1816 74.3105 70.0176 74.9922 70.0176 75.8945Z" fill="black"/>
<path d="M12.1879 -1.38025H73.8121C80.5223 -1.38025 86 4.09746 86 10.8076V74.2121C86 80.9223 80.5223 86.4 73.8121 86.4H12.1879C5.47771 86.4 0 80.9223 0 74.2121V10.6707C0 4.09746 5.47771 -1.38025 12.1879 -1.38025Z" fill="#4A566E"/>
<path d="M39.7134 55.9988L21.7739 37.9223L0 59.6962V64.3523V74.2121C0 80.9223 5.47771 86.4 12.1879 86.4H73.8121C80.5223 86.4 86 80.9223 86 74.2121V64.3523V50.7949L65.5955 30.2535L39.7134 55.9988Z" fill="#00B594"/>
<path d="M39.3026 35.3204C43.5379 35.3204 46.9714 31.8869 46.9714 27.6516C46.9714 23.4162 43.5379 19.9828 39.3026 19.9828C35.0672 19.9828 31.6338 23.4162 31.6338 27.6516C31.6338 31.8869 35.0672 35.3204 39.3026 35.3204Z" fill="#FFCC03"/>
</g>
<defs>
<clipPath id="clip0_21_4729">
<rect width="86" height="86" fill="white"/>
</clipPath>
</defs>
</svg>
