<svg width="58" height="32" viewBox="0 0 58 32" fill="none" xmlns="http://www.w3.org/2000/svg">
<rect width="58" height="32" rx="10" fill="#E2F0FF"/>
<path d="M6.85059 11.0469L10.1045 19.168L13.3584 11.0469H15.0605V21H13.748V17.124L13.8711 12.9404L10.6035 21H9.59863L6.33789 12.9609L6.46777 17.124V21H5.15527V11.0469H6.85059ZM20.249 21.1367C19.2464 21.1367 18.4307 20.8086 17.8018 20.1523C17.1729 19.4915 16.8584 18.6097 16.8584 17.5068V17.2744C16.8584 16.5407 16.9974 15.8867 17.2754 15.3125C17.5579 14.7337 17.9499 14.2826 18.4512 13.959C18.957 13.6309 19.5039 13.4668 20.0918 13.4668C21.0534 13.4668 21.8008 13.7835 22.334 14.417C22.8672 15.0505 23.1338 15.9574 23.1338 17.1377V17.6641H18.123C18.1413 18.3932 18.3532 18.9834 18.7588 19.4346C19.1689 19.8812 19.6885 20.1045 20.3174 20.1045C20.764 20.1045 21.1423 20.0133 21.4521 19.8311C21.762 19.6488 22.0332 19.4072 22.2656 19.1064L23.0381 19.708C22.4183 20.6605 21.4886 21.1367 20.249 21.1367ZM20.0918 14.5059C19.5814 14.5059 19.153 14.6927 18.8066 15.0664C18.4603 15.4355 18.2461 15.9551 18.1641 16.625H21.8691V16.5293C21.8327 15.8867 21.6595 15.39 21.3496 15.0391C21.0397 14.6836 20.6204 14.5059 20.0918 14.5059ZM24.2959 17.2402C24.2959 16.1055 24.5648 15.194 25.1025 14.5059C25.6403 13.8132 26.3444 13.4668 27.2148 13.4668C28.0807 13.4668 28.7666 13.763 29.2725 14.3555V10.5H30.5371V21H29.375L29.3135 20.207C28.8076 20.8268 28.1035 21.1367 27.2012 21.1367C26.3444 21.1367 25.6449 20.7858 25.1025 20.084C24.5648 19.3822 24.2959 18.4661 24.2959 17.3359V17.2402ZM25.5605 17.3838C25.5605 18.2223 25.7337 18.8786 26.0801 19.3525C26.4264 19.8265 26.9049 20.0635 27.5156 20.0635C28.3177 20.0635 28.9033 19.7035 29.2725 18.9834V15.5859C28.8942 14.8887 28.3132 14.54 27.5293 14.54C26.9095 14.54 26.4264 14.7793 26.0801 15.2578C25.7337 15.7363 25.5605 16.445 25.5605 17.3838ZM33.8799 21H32.6152V13.6035H33.8799V21ZM32.5127 11.6416C32.5127 11.4365 32.5742 11.2633 32.6973 11.1221C32.8249 10.9808 33.0117 10.9102 33.2578 10.9102C33.5039 10.9102 33.6908 10.9808 33.8184 11.1221C33.946 11.2633 34.0098 11.4365 34.0098 11.6416C34.0098 11.8467 33.946 12.0176 33.8184 12.1543C33.6908 12.291 33.5039 12.3594 33.2578 12.3594C33.0117 12.3594 32.8249 12.291 32.6973 12.1543C32.5742 12.0176 32.5127 11.8467 32.5127 11.6416ZM40.4766 20.2686C39.9844 20.8473 39.262 21.1367 38.3096 21.1367C37.5212 21.1367 36.9196 20.9089 36.5049 20.4531C36.0947 19.9928 35.8874 19.3138 35.8828 18.416V13.6035H37.1475V18.3818C37.1475 19.5029 37.6032 20.0635 38.5146 20.0635C39.4808 20.0635 40.1234 19.7035 40.4424 18.9834V13.6035H41.707V21H40.5039L40.4766 20.2686ZM44.8242 13.6035L44.8584 14.4238C45.4007 13.7858 46.1322 13.4668 47.0527 13.4668C48.0872 13.4668 48.7913 13.8633 49.165 14.6562C49.4111 14.3008 49.7301 14.0137 50.1221 13.7949C50.5186 13.5762 50.9857 13.4668 51.5234 13.4668C53.1458 13.4668 53.9707 14.3258 53.998 16.0439V21H52.7334V16.1191C52.7334 15.5905 52.6126 15.1963 52.3711 14.9365C52.1296 14.6722 51.724 14.54 51.1543 14.54C50.6849 14.54 50.2952 14.6813 49.9854 14.9639C49.6755 15.2419 49.4954 15.6178 49.4453 16.0918V21H48.1738V16.1533C48.1738 15.0778 47.6475 14.54 46.5947 14.54C45.7653 14.54 45.1979 14.8932 44.8926 15.5996V21H43.6279V13.6035H44.8242Z" fill="#FFAE00"/>
</svg>
