<svg width="20" height="20" viewBox="0 0 20 20" fill="none" xmlns="http://www.w3.org/2000/svg">
<g clip-path="url(#clip0_97_27003)">
<path d="M13.7122 5.64075H8.74525C8.30748 5.64075 7.95264 5.99555 7.95264 6.43336C7.95264 6.87114 8.30744 7.22598 8.74525 7.22598H13.7122C14.1503 7.22598 14.5049 6.87118 14.5049 6.43336C14.5048 5.99555 14.15 5.64075 13.7122 5.64075Z" fill="#BE8408"/>
<path d="M15.6145 9.47156H8.74525C8.30748 9.47156 7.95264 9.82636 7.95264 10.2642C7.95264 10.702 8.30744 11.0568 8.74525 11.0568H15.6145C16.0522 11.0568 16.4071 10.702 16.4071 10.2642C16.4071 9.82636 16.0522 9.47156 15.6145 9.47156Z" fill="#BE8408"/>
<path d="M19.2074 0.673706H5.17832C4.74055 0.673706 4.3857 1.02851 4.3857 1.46632V8.9432H2.98547C1.33922 8.9432 0 10.2827 0 11.9287V16.3408C0 17.9871 1.33922 19.3263 2.98547 19.3263C3.1202 19.3263 3.25285 19.3173 3.38258 19.2999H16.4597C18.4116 19.2999 20 17.7118 20 15.7596V1.46632C20 1.02851 19.6452 0.673706 19.2074 0.673706ZM4.38574 16.3408C4.38574 17.0201 3.89934 17.5881 3.25656 17.7146H2.98551V17.741C2.21324 17.741 1.58523 17.1128 1.58523 16.3408V11.9287C1.58523 11.1567 2.21352 10.5284 2.98551 10.5284H4.38578L4.38574 16.3408ZM18.4148 15.7596C18.4148 16.8193 17.5197 17.7146 16.4597 17.7146H5.63566C5.84992 17.3033 5.97094 16.8359 5.97094 16.3408V2.2589H18.4148V15.7596Z" fill="#BE8408"/>
<path d="M13.7122 13.0651H8.74525C8.30748 13.0651 7.95264 13.4199 7.95264 13.8577C7.95264 14.2955 8.30744 14.6503 8.74525 14.6503H13.7122C14.1503 14.6503 14.5049 14.2955 14.5049 13.8577C14.5048 13.4199 14.15 13.0651 13.7122 13.0651Z" fill="#BE8408"/>
</g>
<defs>
<clipPath id="clip0_97_27003">
<rect width="20" height="20" fill="white"/>
</clipPath>
</defs>
</svg>
