<svg width="23" height="26" viewBox="0 0 23 26" fill="none" xmlns="http://www.w3.org/2000/svg">
<path d="M1 9.07817C1 7.52082 2.27105 6.26334 3.82837 6.27343C9.34949 6.30921 13.4216 6.27508 19.1935 6.25694C20.7418 6.25208 22 7.50659 22 9.05491V21.825C22 23.3714 20.7464 24.625 19.2 24.625H3.8C2.2536 24.625 1 23.3714 1 21.825V9.07817Z" stroke="#CDC1AC" stroke-width="1.5"/>
<path d="M13.833 15.4375V18.0625" stroke="#CDC1AC" stroke-width="1.5" stroke-linecap="round"/>
<path d="M6.83301 6.25V3C6.83301 1.89543 7.72844 1 8.83301 1H14.1663C15.2709 1 16.1663 1.89543 16.1663 3V6.25" stroke="#CDC1AC" stroke-width="1.5" stroke-linecap="round"/>
<path d="M1 11.5C1.27045 11.5 2.07643 11.5 2.89563 11.5C3.83302 11.5 4.64468 12.1511 4.84803 13.0661L5.31864 15.1839C5.52199 16.0989 6.33361 16.75 7.27101 16.75H15.729C16.6664 16.75 17.478 16.0989 17.6814 15.1839L18.152 13.0661C18.3553 12.1511 19.1669 11.5 20.1043 11.5H22" stroke="#CDC1AC" stroke-width="1.5" stroke-linecap="round"/>
<path d="M8.58301 10.8438H14.4163" stroke="#CDC1AC" stroke-width="1.5" stroke-linecap="round"/>
<path d="M8.875 15.4375V18.0625" stroke="#CDC1AC" stroke-width="1.5" stroke-linecap="round"/>
</svg>
