<svg width="26" height="29" viewBox="0 0 26 29" fill="none" xmlns="http://www.w3.org/2000/svg">
<path d="M1 9.80034C1 8.24299 2.27292 6.98544 3.83024 6.99623C10.4332 7.04197 15.1743 6.99957 22.082 6.97888C23.6303 6.97425 24.8889 8.22876 24.8889 9.77707V25.0749C24.8889 26.6213 23.6353 27.8749 22.0889 27.8749H3.8C2.2536 27.8749 1 26.6213 1 25.0749V9.80034Z" stroke="#FFAE00" stroke-width="1.5"/>
<path d="M15.5986 17.4236V20.4097" stroke="#FFAE00" stroke-width="1.5" stroke-linecap="round"/>
<path d="M7.63574 6.97222V3C7.63574 1.89543 8.53117 1 9.63574 1H16.253C17.3576 1 18.253 1.89543 18.253 3V6.97222" stroke="#FFAE00" stroke-width="1.5" stroke-linecap="round"/>
<path d="M1 12.9443C1.33195 12.9443 2.37311 12.9443 3.37714 12.9443C4.31454 12.9443 5.12616 13.5954 5.32951 14.5105L5.96061 17.3504C6.16396 18.2655 6.97559 18.9166 7.91298 18.9166H17.9759C18.9133 18.9166 19.7249 18.2655 19.9283 17.3504L20.5594 14.5105C20.7627 13.5954 21.5744 12.9443 22.5118 12.9443H24.8889" stroke="#FFAE00" stroke-width="1.5" stroke-linecap="round"/>
<path d="M9.62598 12.198H16.2618" stroke="#FFAE00" stroke-width="1.5" stroke-linecap="round"/>
<path d="M9.95801 17.4236V20.4097" stroke="#FFAE00" stroke-width="1.5" stroke-linecap="round"/>
</svg>
