<svg width="178" height="117" viewBox="0 0 178 117" fill="none" xmlns="http://www.w3.org/2000/svg">
<path d="M10.8424 2.80457C10.8424 2.80457 -8.96954 34.5756 10.8424 46.8869C30.6544 59.1982 70.7055 59.1982 80.1748 94.9406C89.6441 130.683 134.272 109.238 151.904 102.089C169.536 94.9406 182.018 102.089 182.018 102.089" stroke="#CDC1AC" stroke-opacity="0.03" stroke-width="3" stroke-miterlimit="10"/>
<path d="M32.1934 2.0103C32.1934 2.0103 14.8524 26.9736 32.1934 36.6471C49.5345 46.3206 84.5898 46.3206 92.8783 74.4046C101.167 102.489 140.228 85.638 155.661 80.0217C171.094 74.4054 182.019 80.0217 182.019 80.0217" stroke="#CDC1AC" stroke-opacity="0.03" stroke-width="3" stroke-miterlimit="10"/>
<path d="M50.9196 2.80457C50.9196 2.80457 35.746 22.3708 50.9196 29.9521C66.0932 37.5335 96.7669 37.5343 104.016 59.5461C111.264 81.5578 145.446 68.3506 158.95 63.9487C172.454 59.5469 182.011 63.9487 182.011 63.9487" stroke="#CDC1AC" stroke-opacity="0.03" stroke-width="3" stroke-miterlimit="10"/>
<path d="M62.9078 2.80457C62.9078 2.80457 49.1187 17.4192 62.9078 23.0872C76.6969 28.7552 104.563 28.752 111.152 45.1975C117.742 61.6429 148.795 51.7756 161.064 48.4865C173.333 45.1975 182.019 48.4865 182.019 48.4865" stroke="#CDC1AC" stroke-opacity="0.03" stroke-width="3" stroke-miterlimit="10"/>
<path d="M72.6458 0.421745C72.6458 0.421745 59.9867 12.791 72.6458 17.5845C85.3048 22.3779 110.896 22.3779 116.945 36.2928C122.995 50.2077 151.511 41.8591 162.777 39.0728C174.043 36.2865 182.018 39.0728 182.018 39.0728" stroke="white" stroke-opacity="0.08" stroke-miterlimit="10"/>
<path d="M81.6345 2.0103C81.6345 2.0103 70.016 11.231 81.6345 14.8045C93.253 18.3779 116.741 18.3787 122.293 28.7512C127.846 39.1236 154.018 32.9005 164.357 30.8258C174.697 28.7512 182.017 30.8258 182.017 30.8258" stroke="#CDC1AC" stroke-opacity="0.03" stroke-width="3" stroke-miterlimit="10"/>
</svg>
