<svg width="26" height="26" viewBox="0 0 26 26" fill="none" xmlns="http://www.w3.org/2000/svg">
<g clip-path="url(#clip0_97_29801)">
<path d="M10.207 18.5859C9.6461 18.5859 9.19141 18.1312 9.19141 17.5703V8.42969C9.19141 7.86876 9.6461 7.41406 10.207 7.41406C10.768 7.41406 11.2227 7.86876 11.2227 8.42969V17.5703C11.2227 18.1312 10.768 18.5859 10.207 18.5859ZM16.8086 17.5703V8.42969C16.8086 7.86876 16.3539 7.41406 15.793 7.41406C15.232 7.41406 14.7773 7.86876 14.7773 8.42969V17.5703C14.7773 18.1312 15.232 18.5859 15.793 18.5859C16.3539 18.5859 16.8086 18.1312 16.8086 17.5703ZM19.7266 24.1265C20.2063 23.8359 20.3597 23.2114 20.0691 22.7317C19.7784 22.2518 19.1539 22.0986 18.6741 22.3891C16.9682 23.4225 15.0061 23.9688 13 23.9688C6.9518 23.9688 2.03125 19.0482 2.03125 13C2.03125 6.9518 6.9518 2.03125 13 2.03125C19.0482 2.03125 23.9688 6.9518 23.9688 13C23.9688 15.1627 23.3256 17.2679 22.1088 19.0879C21.797 19.5542 21.9224 20.1849 22.3886 20.4967C22.855 20.8085 23.4857 20.6832 23.7974 20.2168C25.2384 18.0616 26 15.566 26 13C26 9.52758 24.6477 6.263 22.1924 3.80758C19.737 1.35225 16.4724 0 13 0C9.52758 0 6.263 1.35225 3.80758 3.80758C1.35225 6.263 0 9.52758 0 13C0 16.4724 1.35225 19.737 3.80758 22.1924C6.263 24.6477 9.52758 26 13 26C15.3772 26 17.7032 25.3522 19.7266 24.1265Z" fill="#342499"/>
</g>
<defs>
<clipPath id="clip0_97_29801">
<rect width="26" height="26" fill="white"/>
</clipPath>
</defs>
</svg>
