<svg width="21" height="21" viewBox="0 0 21 21" fill="none" xmlns="http://www.w3.org/2000/svg">
<path d="M5.25 0C4.52812 0 3.9375 0.590625 3.9375 1.3125V19.6875C3.9375 20.4094 4.52812 21 5.25 21H18.375C19.0969 21 19.6875 20.4094 19.6875 19.6875V5.25L14.4375 0H5.25Z" fill="#E2E5E7"/>
<path d="M15.75 5.25H19.6875L14.4375 0V3.9375C14.4375 4.65938 15.0281 5.25 15.75 5.25Z" fill="#B0B7BD"/>
<path d="M19.6875 9.1875L15.75 5.25H19.6875V9.1875Z" fill="#CAD1D8"/>
<path d="M17.0625 17.0625C17.0625 17.4234 16.7672 17.7188 16.4062 17.7188H1.96875C1.60781 17.7188 1.3125 17.4234 1.3125 17.0625V10.5C1.3125 10.1391 1.60781 9.84375 1.96875 9.84375H16.4062C16.7672 9.84375 17.0625 10.1391 17.0625 10.5V17.0625Z" fill="#F15642"/>
<path d="M4.17334 12.434C4.17334 12.2608 4.30984 12.0718 4.52968 12.0718H5.74178C6.42428 12.0718 7.03853 12.5285 7.03853 13.404C7.03853 14.2335 6.42428 14.6955 5.74178 14.6955H4.86568V15.3885C4.86568 15.6195 4.71868 15.7501 4.52968 15.7501C4.35643 15.7501 4.17334 15.6195 4.17334 15.3885V12.434ZM4.86568 12.7326V14.0399H5.74178C6.09353 14.0399 6.37178 13.7295 6.37178 13.404C6.37178 13.0371 6.09353 12.7326 5.74178 12.7326H4.86568Z" fill="white"/>
<path d="M8.06635 15.7502C7.8931 15.7502 7.7041 15.6557 7.7041 15.4253V12.4446C7.7041 12.2563 7.8931 12.1191 8.06635 12.1191H9.26794C11.6659 12.1191 11.6134 15.7502 9.31519 15.7502H8.06635ZM8.3971 12.7596V15.1103H9.26794C10.6848 15.1103 10.7478 12.7596 9.26794 12.7596H8.3971Z" fill="white"/>
<path d="M12.4638 12.8016V13.6357H13.8019C13.9909 13.6357 14.1799 13.8247 14.1799 14.0078C14.1799 14.181 13.9909 14.3228 13.8019 14.3228H12.4638V15.4246C12.4638 15.6083 12.3332 15.7494 12.1494 15.7494C11.9184 15.7494 11.7773 15.6083 11.7773 15.4246V12.4439C11.7773 12.2556 11.9191 12.1184 12.1494 12.1184H13.9915C14.2225 12.1184 14.359 12.2556 14.359 12.4439C14.359 12.6119 14.2225 12.8009 13.9915 12.8009H12.4638V12.8016Z" fill="white"/>
<path d="M16.4062 17.7188H3.9375V18.375H16.4062C16.7672 18.375 17.0625 18.0797 17.0625 17.7188V17.0625C17.0625 17.4234 16.7672 17.7188 16.4062 17.7188Z" fill="#CAD1D8"/>
</svg>
