<svg width="30" height="30" viewBox="0 0 30 30" fill="none" xmlns="http://www.w3.org/2000/svg">
<path d="M20 1.66675H25.5333C27.0797 1.66675 28.3333 2.92035 28.3333 4.46675V10.0001" stroke="#CDC1AC" stroke-width="1.5" stroke-linecap="round"/>
<path d="M20 28.3335H25.5333C27.0797 28.3335 28.3333 27.0799 28.3333 25.5335V20.0002" stroke="#CDC1AC" stroke-width="1.5" stroke-linecap="round"/>
<path d="M10 1.66675H4.46667C2.92027 1.66675 1.66667 2.92035 1.66667 4.46675V10.0001" stroke="#CDC1AC" stroke-width="1.5" stroke-linecap="round"/>
<path d="M10 28.3335H4.46667C2.92027 28.3335 1.66667 27.0799 1.66667 25.5335V20.0002" stroke="#CDC1AC" stroke-width="1.5" stroke-linecap="round"/>
<path d="M10 11.6667L10 13.3334L10 15.0001" stroke="#CDC1AC" stroke-width="1.5" stroke-linecap="round"/>
<path d="M10.75 20C10.75 20.4142 10.4142 20.75 10 20.75C9.58579 20.75 9.25 20.4142 9.25 20L10.75 20ZM9.25 18.3333L9.25 17.5833L10.75 17.5833L10.75 18.3333L9.25 18.3333ZM10 19.1667L9.25 19.1667L9.25 19.1667L10 19.1667ZM9.25 20L9.25 19.1667L10.75 19.1667L10.75 20L9.25 20ZM9.25 19.1667L9.25 18.3333L10.75 18.3333L10.75 19.1667L9.25 19.1667Z" fill="#CDC1AC"/>
<path d="M15 10L15 11.25L15 11.875L15 12.5L15 15" stroke="#CDC1AC" stroke-width="1.5" stroke-linecap="round"/>
<path d="M14.25 21.6667C14.25 22.081 14.5858 22.4167 15 22.4167C15.4142 22.4167 15.75 22.081 15.75 21.6667L14.25 21.6667ZM15.75 18.3334L15.75 17.5834L14.25 17.5834L14.25 18.3334L15.75 18.3334ZM15.75 20.0001L15.75 18.3334L14.25 18.3334L14.25 20.0001L15.75 20.0001ZM15.75 21.6667L15.75 20.8334L14.25 20.8334L14.25 21.6667L15.75 21.6667ZM15.75 20.8334L15.75 20.4167L14.25 20.4167L14.25 20.8334L15.75 20.8334ZM15.75 20.4167L15.75 20.0001L14.25 20.0001L14.25 20.4167L15.75 20.4167Z" fill="#CDC1AC"/>
<path d="M20 11.6667L20 15.0001" stroke="#CDC1AC" stroke-width="1.5" stroke-linecap="round"/>
<path d="M20.75 20C20.75 20.4142 20.4142 20.75 20 20.75C19.5858 20.75 19.25 20.4142 19.25 20L20.75 20ZM19.25 18.3333L19.25 17.5833L20.75 17.5833L20.75 18.3333L19.25 18.3333ZM19.25 20L19.25 18.3333L20.75 18.3333L20.75 20L19.25 20Z" fill="#CDC1AC"/>
<line x1="5.75" y1="15.9167" x2="24.25" y2="15.9167" stroke="#CDC1AC" stroke-width="1.5" stroke-linecap="round"/>
</svg>
