<svg width="32" height="35" viewBox="0 0 32 35" fill="none" xmlns="http://www.w3.org/2000/svg">
<path d="M16 3.13346V1" stroke="#FFAE00" stroke-width="2" stroke-miterlimit="10" stroke-linecap="round" stroke-linejoin="round"/>
<path d="M25.0527 6.88407L26.5618 5.375" stroke="#FFAE00" stroke-width="2" stroke-miterlimit="10" stroke-linecap="round" stroke-linejoin="round"/>
<path d="M28.8008 15.9342H30.9342" stroke="#FFAE00" stroke-width="2" stroke-miterlimit="10" stroke-linecap="round" stroke-linejoin="round"/>
<path d="M25.0527 24.9858L26.5618 26.4949" stroke="#FFAE00" stroke-width="2" stroke-miterlimit="10" stroke-linecap="round" stroke-linejoin="round"/>
<path d="M6.94852 6.88407L5.43945 5.375" stroke="#FFAE00" stroke-width="2" stroke-miterlimit="10" stroke-linecap="round" stroke-linejoin="round"/>
<path d="M3.19987 15.9342H1.06641" stroke="#FFAE00" stroke-width="2" stroke-miterlimit="10" stroke-linecap="round" stroke-linejoin="round"/>
<path d="M6.94852 24.9858L5.43945 26.4949" stroke="#FFAE00" stroke-width="2" stroke-miterlimit="10" stroke-linecap="round" stroke-linejoin="round"/>
<path d="M11.7344 23.3274V26.5987C11.7344 27.7304 12.1839 28.8157 12.9841 29.6159C13.7843 30.4161 14.8696 30.8656 16.0013 30.8656C17.133 30.8656 18.2183 30.4161 19.0185 29.6159C19.8187 28.8157 20.2682 27.7304 20.2682 26.5987V23.3274" stroke="#FFAE00" stroke-width="2" stroke-miterlimit="10" stroke-linecap="round" stroke-linejoin="round"/>
<path d="M16.0007 24.4681C20.7138 24.4681 24.5345 20.6474 24.5345 15.9342C24.5345 11.2211 20.7138 7.40039 16.0007 7.40039C11.2875 7.40039 7.4668 11.2211 7.4668 15.9342C7.4668 20.6474 11.2875 24.4681 16.0007 24.4681Z" stroke="#FFAE00" stroke-width="2" stroke-miterlimit="10" stroke-linecap="round" stroke-linejoin="round"/>
<path d="M16 30.8685V33.002" stroke="#FFAE00" stroke-width="2" stroke-miterlimit="10" stroke-linecap="round" stroke-linejoin="round"/>
</svg>
