<svg width="41" height="54" viewBox="0 0 41 54" fill="none" xmlns="http://www.w3.org/2000/svg">
<path d="M37.7351 44.1976C36.2253 43.0711 33.4843 41.2012 30.4995 39.8191C27.5146 38.4486 25.7609 35.2315 26.2371 31.9911C26.2371 31.9447 26.2487 31.8982 26.2603 31.8402C26.2603 31.8402 33.0546 27.2409 32.1138 22.7579C32.1138 22.7579 32.3229 22.7695 32.6365 22.7463C35.6329 22.4675 35.8188 18.0077 32.8572 17.5315C32.8339 17.5315 32.7991 17.5199 32.7759 17.5199L32.6829 17.0321C33.5888 13.8614 35.7955 4.2565 29.1174 5.18563C29.1174 5.18563 24.3207 -2.74685 14.1816 1.07422C4.03078 4.88367 6.67881 13.9776 6.67881 13.9776L7.93314 17.6012C5.20381 18.2748 5.45932 22.4908 8.36286 22.7579C8.67645 22.7811 8.89712 22.7695 8.89712 22.7695C7.94475 27.2526 14.739 31.8518 14.739 31.8518C14.7507 31.9098 14.7507 31.9563 14.7623 32.0028C15.2268 35.2431 13.4731 38.4602 10.4999 39.8307C7.50341 41.2128 4.77408 43.0943 3.26424 44.2093C2.35834 44.8713 1.55696 45.6726 0.941406 46.6134C6.16778 51.201 13.0085 54 20.4997 54C28.0024 54 34.8432 51.201 40.0463 46.5902C39.4424 45.661 38.641 44.8596 37.7351 44.1976Z" fill="#4D5C7D"/>
</svg>
