<svg width="16" height="17" viewBox="0 0 16 17" fill="none" xmlns="http://www.w3.org/2000/svg">
<path d="M7.4838 1.15369C7.64497 0.948769 7.95538 0.948769 8.11656 1.15369L9.32975 2.69676C9.43063 2.82501 9.59891 2.87969 9.75586 2.83521L11.6443 2.29995C11.8952 2.22887 12.1464 2.41136 12.1562 2.67185L12.2307 4.63334C12.237 4.79636 12.3409 4.93952 12.4941 4.9958L14.3365 5.67281C14.5812 5.76272 14.6772 6.05799 14.5321 6.27456L13.4395 7.90522C13.3486 8.04078 13.3486 8.21771 13.4395 8.35326L14.5321 9.98392C14.6772 10.2005 14.5812 10.4957 14.3365 10.5857L12.4941 11.2627C12.3409 11.319 12.237 11.4621 12.2307 11.6252L12.1562 13.5866C12.1464 13.8471 11.8952 14.0296 11.6443 13.9585L9.75586 13.4233C9.59891 13.3788 9.43063 13.4335 9.32975 13.5617L8.11656 15.1048C7.95538 15.3097 7.64497 15.3097 7.4838 15.1048L6.2706 13.5617C6.16976 13.4335 6.00146 13.3788 5.8445 13.4233L3.95599 13.9585C3.70519 14.0296 3.45401 13.8471 3.44412 13.5866L3.36959 11.6252C3.36339 11.4621 3.25938 11.319 3.10624 11.2627L1.26379 10.5857C1.01911 10.4957 0.92317 10.2005 1.06828 9.98392L2.16091 8.35326C2.25172 8.21771 2.25172 8.04078 2.16091 7.90522L1.06828 6.27456C0.92317 6.05799 1.01911 5.76272 1.26379 5.67281L3.10625 4.9958C3.25938 4.93952 3.36339 4.79636 3.36959 4.63334L3.44412 2.67185C3.45401 2.41136 3.70519 2.22887 3.956 2.29995L5.8445 2.83521C6.00146 2.87969 6.16976 2.82501 6.2706 2.69676L7.4838 1.15369Z" stroke="#FFAE00" stroke-width="1.5"/>
</svg>
