<svg width="23" height="20" viewBox="0 0 23 20" fill="none" xmlns="http://www.w3.org/2000/svg">
<path d="M0.65865 17.1235H3.95163V19.0993C3.95163 19.463 4.2465 19.7579 4.61022 19.7579H21.8215C22.1852 19.7579 22.4801 19.463 22.4801 19.0993V1.97579C22.4801 1.61207 22.1852 1.31719 21.8215 1.31719H18.5285V0.658595C18.5285 0.294875 18.2337 0 17.8699 0C17.5062 0 17.2113 0.294875 17.2113 0.658595V1.31719H13.8745V0.658595C13.8745 0.294875 13.5796 0 13.2159 0C12.8521 0 12.5573 0.294875 12.5573 0.658595V1.31719H9.2643V0.658595C9.2643 0.294875 8.96942 0 8.6057 0C8.24198 0 7.94711 0.294875 7.94711 0.658595V1.31719H4.61022C4.2465 1.31719 3.95163 1.61207 3.95163 1.97579V5.92736C3.95163 10.7812 1.93435 14.5153 0.237018 15.959C0.0239839 16.1365 -0.0550036 16.4284 0.0393511 16.6891C0.133794 16.9498 0.381338 17.1235 0.65865 17.1235ZM21.1629 18.4407H5.26882V17.1235H17.8699C18.024 17.1235 18.1732 17.0695 18.2916 16.9708C19.0833 16.3114 20.3096 14.7414 21.1629 12.7306V18.4407ZM5.26882 2.63438H7.94711V3.29298C7.94711 3.6567 8.24198 3.95157 8.6057 3.95157C8.96942 3.95157 9.2643 3.6567 9.2643 3.29298V2.63438H12.5573V3.29298C12.5573 3.6567 12.8521 3.95157 13.2159 3.95157C13.5796 3.95157 13.8745 3.6567 13.8745 3.29298V2.63438H17.2113V3.29298C17.2113 3.6567 17.5062 3.95157 17.8699 3.95157C18.2337 3.95157 18.5285 3.6567 18.5285 3.29298V2.63438H21.1629V5.26876H5.26882V2.63438ZM5.25753 6.58552H21.1512C21.0028 10.7634 19.3993 14.0506 17.6117 15.8063H2.15669C4.18222 13.2254 5.14887 9.86497 5.25753 6.58552Z" fill="#BE8408"/>
</svg>
