<svg width="21" height="21" viewBox="0 0 21 21" fill="none" xmlns="http://www.w3.org/2000/svg">
<path d="M1.66578 13.3306C2.36176 12.719 3.20579 12.1906 4.17462 11.7601C4.58878 11.5762 5.07344 11.7627 5.25737 12.1767C5.4413 12.5907 5.25481 13.0753 4.84081 13.2594C4.02386 13.6225 3.31986 14.061 2.74869 14.563C2.04453 15.1817 1.64062 16.0776 1.64062 17.0215V18.5391C1.64062 18.9914 2.00864 19.3594 2.46094 19.3594H18.5391C18.9914 19.3594 19.3594 18.9914 19.3594 18.5391V17.0215C19.3594 16.0776 18.9555 15.1817 18.2513 14.563C17.4225 13.8346 15.0077 12.1406 10.5 12.1406C7.1529 12.1406 4.42969 9.41741 4.42969 6.07031C4.42969 2.72321 7.1529 0 10.5 0C13.8471 0 16.5703 2.72321 16.5703 6.07031C16.5703 8.02705 15.6395 9.77021 14.1975 10.881C16.836 11.461 18.4772 12.5774 19.3342 13.3306C20.3928 14.2606 21 15.6058 21 17.0215V18.5391C21 19.8961 19.8961 21 18.5391 21H2.46094C1.1039 21 0 19.8961 0 18.5391V17.0215C0 15.6058 0.607224 14.2606 1.66578 13.3306ZM14.9297 6.07031C14.9297 3.6278 12.9425 1.64062 10.5 1.64062C8.05749 1.64062 6.07031 3.6278 6.07031 6.07031C6.07031 8.51283 8.05749 10.5 10.5 10.5C12.9425 10.5 14.9297 8.51283 14.9297 6.07031Z" fill="#BE8408"/>
</svg>
