<svg width="25" height="23" viewBox="0 0 25 23" fill="none" xmlns="http://www.w3.org/2000/svg">
<mask id="path-1-outside-1_97_29809" maskUnits="userSpaceOnUse" x="0.125" y="0.00317383" width="25" height="23" fill="black">
<rect fill="white" x="0.125" y="0.00317383" width="25" height="23"/>
<path d="M21.1003 8.04445C20.6567 7.87384 20.1835 7.71903 19.6859 7.5801C19.8144 7.07971 19.9169 6.59246 19.991 6.123C20.3763 3.67936 19.9505 1.9652 18.7919 1.29627C18.4551 1.10181 18.068 1.00317 17.6415 1.00317C16.2942 1.00317 14.5917 2.00379 12.8743 3.6936C12.4991 3.32512 12.1222 2.98667 11.7465 2.68285C9.823 1.12727 8.12543 0.638961 6.96693 1.3079C6.22237 1.73776 5.76955 2.61564 5.65753 3.84651C5.63869 4.05325 5.79105 4.23608 5.99779 4.25487C6.20518 4.27402 6.38731 4.12136 6.40616 3.91462C6.4682 3.23331 6.68101 2.34099 7.34277 1.95894C8.20031 1.46371 9.63315 1.94064 11.2738 3.26734C11.6318 3.55682 11.9912 3.87964 12.3494 4.23127C11.629 4.99773 10.9122 5.87987 10.2238 6.85483C9.01298 6.96504 7.85965 7.14993 6.80119 7.40353C6.61585 6.68302 6.48855 5.99555 6.42575 5.35734C6.40546 5.15075 6.22232 4.99979 6.01488 5.02009C5.80829 5.04038 5.65728 5.22437 5.67763 5.43096C5.74409 6.10626 5.87851 6.83258 6.07442 7.59273C5.59348 7.72835 5.1357 7.87901 4.70563 8.0444C2.39656 8.9325 1.125 10.1584 1.125 11.4962C1.125 12.834 2.39656 14.0599 4.70553 14.948C5.14908 15.1186 5.6223 15.2734 6.11988 15.4123C5.99143 15.9127 5.88888 16.4 5.81481 16.8694C5.42944 19.3131 5.8553 21.0272 7.0139 21.6962C7.35069 21.8906 7.73776 21.9893 8.16432 21.9893C9.49613 21.9893 11.175 21.0112 12.8724 19.3565C13.236 19.7116 13.6011 20.0386 13.9651 20.3329C15.3264 21.4338 16.5742 22.0001 17.5982 22.0001C18.0211 22 18.406 21.9034 18.7447 21.7079C19.9033 21.0389 20.3291 19.3248 19.9438 16.8811C19.8697 16.4117 19.7672 15.9245 19.6387 15.4242C20.4125 15.2111 21.1243 14.9601 21.7547 14.6744C21.9438 14.5887 22.0276 14.366 21.9418 14.1769C21.8561 13.9878 21.6334 13.9039 21.4443 13.9897C20.8473 14.2602 20.1725 14.4984 19.4375 14.701C19.1336 13.6855 18.7289 12.6254 18.2358 11.5531C18.7511 10.4444 19.1723 9.34768 19.4859 8.2986C22.2758 9.07975 23.929 10.3135 23.929 11.4962C23.929 12.2604 23.2626 12.8909 22.7036 13.2852C22.534 13.4048 22.4935 13.6393 22.6131 13.809C22.7328 13.9787 22.9673 14.0191 23.1369 13.8995C24.147 13.1871 24.6808 12.356 24.6808 11.4962C24.6808 10.1584 23.4092 8.9325 21.1003 8.04445ZM17.6414 1.755C17.9343 1.755 18.1949 1.81971 18.4159 1.94736C19.2736 2.44253 19.577 3.92184 19.2483 6.00592C19.1779 6.45233 19.0804 6.91603 18.9581 7.39265C17.8953 7.14066 16.7379 6.95762 15.5234 6.84962C14.842 5.88523 14.1268 5.0033 13.3996 4.23077C13.5327 4.09956 13.6658 3.97225 13.7988 3.84976C15.2648 2.49892 16.6295 1.755 17.6414 1.755ZM12.8753 4.76974C13.4425 5.37428 14.003 6.04862 14.5454 6.7796C14.0057 6.75018 13.4573 6.73495 12.9029 6.73495C12.33 6.73495 11.7633 6.75104 11.2061 6.78241C11.7478 6.05268 12.309 5.37558 12.8753 4.76974ZM12.8727 18.2846C12.2854 17.6621 11.7051 16.9644 11.1443 16.2064C11.7213 16.2402 12.3087 16.2575 12.9029 16.2575C13.4752 16.2575 14.0422 16.2408 14.6005 16.2089C14.0401 16.9639 13.4589 17.6629 12.8727 18.2846ZM12.9029 15.5057C12.0952 15.5057 11.3202 15.4744 10.5817 15.4163C10.1669 14.8111 9.76556 14.1744 9.38351 13.5126C9.00747 12.8613 8.66155 12.2041 8.34821 11.5502C8.67348 10.8655 9.03518 10.1763 9.43057 9.49148C9.81348 8.8283 10.2199 8.18523 10.6423 7.57158C11.3627 7.5165 12.1172 7.48673 12.9029 7.48673C13.6684 7.48673 14.4042 7.515 15.1078 7.56737C15.5305 8.18218 15.9393 8.82961 16.3282 9.5031C16.7216 10.1846 17.0816 10.8703 17.4057 11.5516C17.094 12.2002 16.7496 12.8525 16.3753 13.5009C15.9931 14.1628 15.5874 14.8048 15.1659 15.4174C14.4284 15.4754 13.6709 15.5057 12.9029 15.5057ZM9.61435 15.3225C8.68951 15.2157 7.83103 15.0655 7.04803 14.881C7.28579 14.0897 7.5872 13.2692 7.9466 12.4357C8.19209 12.9212 8.45421 13.4066 8.73242 13.8885C9.01649 14.3806 9.31124 14.8593 9.61435 15.3225ZM9.674 7.66295C9.36772 8.12995 9.06866 8.61475 8.77953 9.11559C8.48217 9.6306 8.20321 10.1485 7.9437 10.6657C7.56565 9.7977 7.24915 8.94278 7.00207 8.12218C7.81414 7.92877 8.70821 7.7722 9.674 7.66295ZM1.87678 11.4962C1.87678 10.3198 3.51235 9.09298 6.27505 8.31118C6.58754 9.35375 7.00683 10.4472 7.51824 11.5512C7.02643 12.6218 6.62287 13.6801 6.31975 14.6939C3.53 13.9127 1.87678 12.679 1.87678 11.4962ZM8.16437 21.2374C7.87148 21.2374 7.61086 21.1727 7.38984 21.0451C6.53221 20.5499 6.22879 19.0706 6.55752 16.9865C6.62793 16.5401 6.72541 16.0764 6.84765 15.5998C7.87599 15.8436 8.99273 16.0228 10.1642 16.132C10.8634 17.1247 11.5985 18.0306 12.3458 18.8208C12.2329 18.9311 12.1198 19.0387 12.007 19.1427C10.5409 20.4936 9.17632 21.2374 8.16437 21.2374ZM19.2012 16.9982C19.5299 19.0823 19.2265 20.5616 18.3689 21.0568C17.5112 21.5519 16.0785 21.075 14.4379 19.7484C14.0924 19.469 13.7455 19.1586 13.3998 18.8212C14.1396 18.0405 14.8764 17.1371 15.5831 16.1359C16.7575 16.0281 17.8797 15.8504 18.9105 15.6092C19.033 16.0866 19.1307 16.5511 19.2012 16.9982ZM18.7085 14.8855C17.9034 15.0726 17.039 15.2198 16.1355 15.3238C16.4405 14.8586 16.7383 14.3757 17.0263 13.8769C17.3028 13.3979 17.5632 12.9165 17.8071 12.4356C18.1677 13.2706 18.47 14.0927 18.7085 14.8855ZM17.8105 10.6683C17.5523 10.1541 17.2748 9.63927 16.9792 9.12721C16.6876 8.62212 16.3848 8.13095 16.0732 7.65633C17.0432 7.76388 17.9414 7.9191 18.7578 8.11146C18.5094 8.93806 18.1913 9.7966 17.8105 10.6683Z"/>
</mask>
<path d="M21.1003 8.04445C20.6567 7.87384 20.1835 7.71903 19.6859 7.5801C19.8144 7.07971 19.9169 6.59246 19.991 6.123C20.3763 3.67936 19.9505 1.9652 18.7919 1.29627C18.4551 1.10181 18.068 1.00317 17.6415 1.00317C16.2942 1.00317 14.5917 2.00379 12.8743 3.6936C12.4991 3.32512 12.1222 2.98667 11.7465 2.68285C9.823 1.12727 8.12543 0.638961 6.96693 1.3079C6.22237 1.73776 5.76955 2.61564 5.65753 3.84651C5.63869 4.05325 5.79105 4.23608 5.99779 4.25487C6.20518 4.27402 6.38731 4.12136 6.40616 3.91462C6.4682 3.23331 6.68101 2.34099 7.34277 1.95894C8.20031 1.46371 9.63315 1.94064 11.2738 3.26734C11.6318 3.55682 11.9912 3.87964 12.3494 4.23127C11.629 4.99773 10.9122 5.87987 10.2238 6.85483C9.01298 6.96504 7.85965 7.14993 6.80119 7.40353C6.61585 6.68302 6.48855 5.99555 6.42575 5.35734C6.40546 5.15075 6.22232 4.99979 6.01488 5.02009C5.80829 5.04038 5.65728 5.22437 5.67763 5.43096C5.74409 6.10626 5.87851 6.83258 6.07442 7.59273C5.59348 7.72835 5.1357 7.87901 4.70563 8.0444C2.39656 8.9325 1.125 10.1584 1.125 11.4962C1.125 12.834 2.39656 14.0599 4.70553 14.948C5.14908 15.1186 5.6223 15.2734 6.11988 15.4123C5.99143 15.9127 5.88888 16.4 5.81481 16.8694C5.42944 19.3131 5.8553 21.0272 7.0139 21.6962C7.35069 21.8906 7.73776 21.9893 8.16432 21.9893C9.49613 21.9893 11.175 21.0112 12.8724 19.3565C13.236 19.7116 13.6011 20.0386 13.9651 20.3329C15.3264 21.4338 16.5742 22.0001 17.5982 22.0001C18.0211 22 18.406 21.9034 18.7447 21.7079C19.9033 21.0389 20.3291 19.3248 19.9438 16.8811C19.8697 16.4117 19.7672 15.9245 19.6387 15.4242C20.4125 15.2111 21.1243 14.9601 21.7547 14.6744C21.9438 14.5887 22.0276 14.366 21.9418 14.1769C21.8561 13.9878 21.6334 13.9039 21.4443 13.9897C20.8473 14.2602 20.1725 14.4984 19.4375 14.701C19.1336 13.6855 18.7289 12.6254 18.2358 11.5531C18.7511 10.4444 19.1723 9.34768 19.4859 8.2986C22.2758 9.07975 23.929 10.3135 23.929 11.4962C23.929 12.2604 23.2626 12.8909 22.7036 13.2852C22.534 13.4048 22.4935 13.6393 22.6131 13.809C22.7328 13.9787 22.9673 14.0191 23.1369 13.8995C24.147 13.1871 24.6808 12.356 24.6808 11.4962C24.6808 10.1584 23.4092 8.9325 21.1003 8.04445ZM17.6414 1.755C17.9343 1.755 18.1949 1.81971 18.4159 1.94736C19.2736 2.44253 19.577 3.92184 19.2483 6.00592C19.1779 6.45233 19.0804 6.91603 18.9581 7.39265C17.8953 7.14066 16.7379 6.95762 15.5234 6.84962C14.842 5.88523 14.1268 5.0033 13.3996 4.23077C13.5327 4.09956 13.6658 3.97225 13.7988 3.84976C15.2648 2.49892 16.6295 1.755 17.6414 1.755ZM12.8753 4.76974C13.4425 5.37428 14.003 6.04862 14.5454 6.7796C14.0057 6.75018 13.4573 6.73495 12.9029 6.73495C12.33 6.73495 11.7633 6.75104 11.2061 6.78241C11.7478 6.05268 12.309 5.37558 12.8753 4.76974ZM12.8727 18.2846C12.2854 17.6621 11.7051 16.9644 11.1443 16.2064C11.7213 16.2402 12.3087 16.2575 12.9029 16.2575C13.4752 16.2575 14.0422 16.2408 14.6005 16.2089C14.0401 16.9639 13.4589 17.6629 12.8727 18.2846ZM12.9029 15.5057C12.0952 15.5057 11.3202 15.4744 10.5817 15.4163C10.1669 14.8111 9.76556 14.1744 9.38351 13.5126C9.00747 12.8613 8.66155 12.2041 8.34821 11.5502C8.67348 10.8655 9.03518 10.1763 9.43057 9.49148C9.81348 8.8283 10.2199 8.18523 10.6423 7.57158C11.3627 7.5165 12.1172 7.48673 12.9029 7.48673C13.6684 7.48673 14.4042 7.515 15.1078 7.56737C15.5305 8.18218 15.9393 8.82961 16.3282 9.5031C16.7216 10.1846 17.0816 10.8703 17.4057 11.5516C17.094 12.2002 16.7496 12.8525 16.3753 13.5009C15.9931 14.1628 15.5874 14.8048 15.1659 15.4174C14.4284 15.4754 13.6709 15.5057 12.9029 15.5057ZM9.61435 15.3225C8.68951 15.2157 7.83103 15.0655 7.04803 14.881C7.28579 14.0897 7.5872 13.2692 7.9466 12.4357C8.19209 12.9212 8.45421 13.4066 8.73242 13.8885C9.01649 14.3806 9.31124 14.8593 9.61435 15.3225ZM9.674 7.66295C9.36772 8.12995 9.06866 8.61475 8.77953 9.11559C8.48217 9.6306 8.20321 10.1485 7.9437 10.6657C7.56565 9.7977 7.24915 8.94278 7.00207 8.12218C7.81414 7.92877 8.70821 7.7722 9.674 7.66295ZM1.87678 11.4962C1.87678 10.3198 3.51235 9.09298 6.27505 8.31118C6.58754 9.35375 7.00683 10.4472 7.51824 11.5512C7.02643 12.6218 6.62287 13.6801 6.31975 14.6939C3.53 13.9127 1.87678 12.679 1.87678 11.4962ZM8.16437 21.2374C7.87148 21.2374 7.61086 21.1727 7.38984 21.0451C6.53221 20.5499 6.22879 19.0706 6.55752 16.9865C6.62793 16.5401 6.72541 16.0764 6.84765 15.5998C7.87599 15.8436 8.99273 16.0228 10.1642 16.132C10.8634 17.1247 11.5985 18.0306 12.3458 18.8208C12.2329 18.9311 12.1198 19.0387 12.007 19.1427C10.5409 20.4936 9.17632 21.2374 8.16437 21.2374ZM19.2012 16.9982C19.5299 19.0823 19.2265 20.5616 18.3689 21.0568C17.5112 21.5519 16.0785 21.075 14.4379 19.7484C14.0924 19.469 13.7455 19.1586 13.3998 18.8212C14.1396 18.0405 14.8764 17.1371 15.5831 16.1359C16.7575 16.0281 17.8797 15.8504 18.9105 15.6092C19.033 16.0866 19.1307 16.5511 19.2012 16.9982ZM18.7085 14.8855C17.9034 15.0726 17.039 15.2198 16.1355 15.3238C16.4405 14.8586 16.7383 14.3757 17.0263 13.8769C17.3028 13.3979 17.5632 12.9165 17.8071 12.4356C18.1677 13.2706 18.47 14.0927 18.7085 14.8855ZM17.8105 10.6683C17.5523 10.1541 17.2748 9.63927 16.9792 9.12721C16.6876 8.62212 16.3848 8.13095 16.0732 7.65633C17.0432 7.76388 17.9414 7.9191 18.7578 8.11146C18.5094 8.93806 18.1913 9.7966 17.8105 10.6683Z" fill="#16A085"/>
<path d="M21.1003 8.04445C20.6567 7.87384 20.1835 7.71903 19.6859 7.5801C19.8144 7.07971 19.9169 6.59246 19.991 6.123C20.3763 3.67936 19.9505 1.9652 18.7919 1.29627C18.4551 1.10181 18.068 1.00317 17.6415 1.00317C16.2942 1.00317 14.5917 2.00379 12.8743 3.6936C12.4991 3.32512 12.1222 2.98667 11.7465 2.68285C9.823 1.12727 8.12543 0.638961 6.96693 1.3079C6.22237 1.73776 5.76955 2.61564 5.65753 3.84651C5.63869 4.05325 5.79105 4.23608 5.99779 4.25487C6.20518 4.27402 6.38731 4.12136 6.40616 3.91462C6.4682 3.23331 6.68101 2.34099 7.34277 1.95894C8.20031 1.46371 9.63315 1.94064 11.2738 3.26734C11.6318 3.55682 11.9912 3.87964 12.3494 4.23127C11.629 4.99773 10.9122 5.87987 10.2238 6.85483C9.01298 6.96504 7.85965 7.14993 6.80119 7.40353C6.61585 6.68302 6.48855 5.99555 6.42575 5.35734C6.40546 5.15075 6.22232 4.99979 6.01488 5.02009C5.80829 5.04038 5.65728 5.22437 5.67763 5.43096C5.74409 6.10626 5.87851 6.83258 6.07442 7.59273C5.59348 7.72835 5.1357 7.87901 4.70563 8.0444C2.39656 8.9325 1.125 10.1584 1.125 11.4962C1.125 12.834 2.39656 14.0599 4.70553 14.948C5.14908 15.1186 5.6223 15.2734 6.11988 15.4123C5.99143 15.9127 5.88888 16.4 5.81481 16.8694C5.42944 19.3131 5.8553 21.0272 7.0139 21.6962C7.35069 21.8906 7.73776 21.9893 8.16432 21.9893C9.49613 21.9893 11.175 21.0112 12.8724 19.3565C13.236 19.7116 13.6011 20.0386 13.9651 20.3329C15.3264 21.4338 16.5742 22.0001 17.5982 22.0001C18.0211 22 18.406 21.9034 18.7447 21.7079C19.9033 21.0389 20.3291 19.3248 19.9438 16.8811C19.8697 16.4117 19.7672 15.9245 19.6387 15.4242C20.4125 15.2111 21.1243 14.9601 21.7547 14.6744C21.9438 14.5887 22.0276 14.366 21.9418 14.1769C21.8561 13.9878 21.6334 13.9039 21.4443 13.9897C20.8473 14.2602 20.1725 14.4984 19.4375 14.701C19.1336 13.6855 18.7289 12.6254 18.2358 11.5531C18.7511 10.4444 19.1723 9.34768 19.4859 8.2986C22.2758 9.07975 23.929 10.3135 23.929 11.4962C23.929 12.2604 23.2626 12.8909 22.7036 13.2852C22.534 13.4048 22.4935 13.6393 22.6131 13.809C22.7328 13.9787 22.9673 14.0191 23.1369 13.8995C24.147 13.1871 24.6808 12.356 24.6808 11.4962C24.6808 10.1584 23.4092 8.9325 21.1003 8.04445ZM17.6414 1.755C17.9343 1.755 18.1949 1.81971 18.4159 1.94736C19.2736 2.44253 19.577 3.92184 19.2483 6.00592C19.1779 6.45233 19.0804 6.91603 18.9581 7.39265C17.8953 7.14066 16.7379 6.95762 15.5234 6.84962C14.842 5.88523 14.1268 5.0033 13.3996 4.23077C13.5327 4.09956 13.6658 3.97225 13.7988 3.84976C15.2648 2.49892 16.6295 1.755 17.6414 1.755ZM12.8753 4.76974C13.4425 5.37428 14.003 6.04862 14.5454 6.7796C14.0057 6.75018 13.4573 6.73495 12.9029 6.73495C12.33 6.73495 11.7633 6.75104 11.2061 6.78241C11.7478 6.05268 12.309 5.37558 12.8753 4.76974ZM12.8727 18.2846C12.2854 17.6621 11.7051 16.9644 11.1443 16.2064C11.7213 16.2402 12.3087 16.2575 12.9029 16.2575C13.4752 16.2575 14.0422 16.2408 14.6005 16.2089C14.0401 16.9639 13.4589 17.6629 12.8727 18.2846ZM12.9029 15.5057C12.0952 15.5057 11.3202 15.4744 10.5817 15.4163C10.1669 14.8111 9.76556 14.1744 9.38351 13.5126C9.00747 12.8613 8.66155 12.2041 8.34821 11.5502C8.67348 10.8655 9.03518 10.1763 9.43057 9.49148C9.81348 8.8283 10.2199 8.18523 10.6423 7.57158C11.3627 7.5165 12.1172 7.48673 12.9029 7.48673C13.6684 7.48673 14.4042 7.515 15.1078 7.56737C15.5305 8.18218 15.9393 8.82961 16.3282 9.5031C16.7216 10.1846 17.0816 10.8703 17.4057 11.5516C17.094 12.2002 16.7496 12.8525 16.3753 13.5009C15.9931 14.1628 15.5874 14.8048 15.1659 15.4174C14.4284 15.4754 13.6709 15.5057 12.9029 15.5057ZM9.61435 15.3225C8.68951 15.2157 7.83103 15.0655 7.04803 14.881C7.28579 14.0897 7.5872 13.2692 7.9466 12.4357C8.19209 12.9212 8.45421 13.4066 8.73242 13.8885C9.01649 14.3806 9.31124 14.8593 9.61435 15.3225ZM9.674 7.66295C9.36772 8.12995 9.06866 8.61475 8.77953 9.11559C8.48217 9.6306 8.20321 10.1485 7.9437 10.6657C7.56565 9.7977 7.24915 8.94278 7.00207 8.12218C7.81414 7.92877 8.70821 7.7722 9.674 7.66295ZM1.87678 11.4962C1.87678 10.3198 3.51235 9.09298 6.27505 8.31118C6.58754 9.35375 7.00683 10.4472 7.51824 11.5512C7.02643 12.6218 6.62287 13.6801 6.31975 14.6939C3.53 13.9127 1.87678 12.679 1.87678 11.4962ZM8.16437 21.2374C7.87148 21.2374 7.61086 21.1727 7.38984 21.0451C6.53221 20.5499 6.22879 19.0706 6.55752 16.9865C6.62793 16.5401 6.72541 16.0764 6.84765 15.5998C7.87599 15.8436 8.99273 16.0228 10.1642 16.132C10.8634 17.1247 11.5985 18.0306 12.3458 18.8208C12.2329 18.9311 12.1198 19.0387 12.007 19.1427C10.5409 20.4936 9.17632 21.2374 8.16437 21.2374ZM19.2012 16.9982C19.5299 19.0823 19.2265 20.5616 18.3689 21.0568C17.5112 21.5519 16.0785 21.075 14.4379 19.7484C14.0924 19.469 13.7455 19.1586 13.3998 18.8212C14.1396 18.0405 14.8764 17.1371 15.5831 16.1359C16.7575 16.0281 17.8797 15.8504 18.9105 15.6092C19.033 16.0866 19.1307 16.5511 19.2012 16.9982ZM18.7085 14.8855C17.9034 15.0726 17.039 15.2198 16.1355 15.3238C16.4405 14.8586 16.7383 14.3757 17.0263 13.8769C17.3028 13.3979 17.5632 12.9165 17.8071 12.4356C18.1677 13.2706 18.47 14.0927 18.7085 14.8855ZM17.8105 10.6683C17.5523 10.1541 17.2748 9.63927 16.9792 9.12721C16.6876 8.62212 16.3848 8.13095 16.0732 7.65633C17.0432 7.76388 17.9414 7.9191 18.7578 8.11146C18.5094 8.93806 18.1913 9.7966 17.8105 10.6683Z" stroke="#B9AE9C" stroke-width="0.4" mask="url(#path-1-outside-1_97_29809)"/>
</svg>
